<svg version="1.1" xmlns="http://www.w3.org/2000/svg" xmlns:xlink="http://www.w3.org/1999/xlink" width="716" height="324"><defs/><g><text fill="#eeeeee" stroke="none" font-family="Arial" font-size="24px" font-style="normal" font-weight="normal" text-decoration="none" x="0" y="0">UNREGISTERED</text><text fill="#eeeeee" stroke="none" font-family="Arial" font-size="24px" font-style="normal" font-weight="normal" text-decoration="none" x="0" y="30">UNREGISTERED</text><text fill="#eeeeee" stroke="none" font-family="Arial" font-size="24px" font-style="normal" font-weight="normal" text-decoration="none" x="0" y="60">UNREGISTERED</text><text fill="#eeeeee" stroke="none" font-family="Arial" font-size="24px" font-style="normal" font-weight="normal" text-decoration="none" x="0" y="90">UNREGISTERED</text><text fill="#eeeeee" stroke="none" font-family="Arial" font-size="24px" font-style="normal" font-weight="normal" text-decoration="none" x="0" y="120">UNREGISTERED</text><text fill="#eeeeee" stroke="none" font-family="Arial" font-size="24px" font-style="normal" font-weight="normal" text-decoration="none" x="0" y="150">UNREGISTERED</text><text fill="#eeeeee" stroke="none" font-family="Arial" font-size="24px" font-style="normal" font-weight="normal" text-decoration="none" x="0" y="180">UNREGISTERED</text><text fill="#eeeeee" stroke="none" font-family="Arial" font-size="24px" font-style="normal" font-weight="normal" text-decoration="none" x="0" y="210">UNREGISTERED</text><text fill="#eeeeee" stroke="none" font-family="Arial" font-size="24px" font-style="normal" font-weight="normal" text-decoration="none" x="0" y="240">UNREGISTERED</text><text fill="#eeeeee" stroke="none" font-family="Arial" font-size="24px" font-style="normal" font-weight="normal" text-decoration="none" x="0" y="270">UNREGISTERED</text><text fill="#eeeeee" stroke="none" font-family="Arial" font-size="24px" font-style="normal" font-weight="normal" text-decoration="none" x="0" y="300">UNREGISTERED</text><text fill="#eeeeee" stroke="none" font-family="Arial" font-size="24px" font-style="normal" font-weight="normal" text-decoration="none" x="200" y="0">UNREGISTERED</text><text fill="#eeeeee" stroke="none" font-family="Arial" font-size="24px" font-style="normal" font-weight="normal" text-decoration="none" x="200" y="30">UNREGISTERED</text><text fill="#eeeeee" stroke="none" font-family="Arial" font-size="24px" font-style="normal" font-weight="normal" text-decoration="none" x="200" y="60">UNREGISTERED</text><text fill="#eeeeee" stroke="none" font-family="Arial" font-size="24px" font-style="normal" font-weight="normal" text-decoration="none" x="200" y="90">UNREGISTERED</text><text fill="#eeeeee" stroke="none" font-family="Arial" font-size="24px" font-style="normal" font-weight="normal" text-decoration="none" x="200" y="120">UNREGISTERED</text><text fill="#eeeeee" stroke="none" font-family="Arial" font-size="24px" font-style="normal" font-weight="normal" text-decoration="none" x="200" y="150">UNREGISTERED</text><text fill="#eeeeee" stroke="none" font-family="Arial" font-size="24px" font-style="normal" font-weight="normal" text-decoration="none" x="200" y="180">UNREGISTERED</text><text fill="#eeeeee" stroke="none" font-family="Arial" font-size="24px" font-style="normal" font-weight="normal" text-decoration="none" x="200" y="210">UNREGISTERED</text><text fill="#eeeeee" stroke="none" font-family="Arial" font-size="24px" font-style="normal" font-weight="normal" text-decoration="none" x="200" y="240">UNREGISTERED</text><text fill="#eeeeee" stroke="none" font-family="Arial" font-size="24px" font-style="normal" font-weight="normal" text-decoration="none" x="200" y="270">UNREGISTERED</text><text fill="#eeeeee" stroke="none" font-family="Arial" font-size="24px" font-style="normal" font-weight="normal" text-decoration="none" x="200" y="300">UNREGISTERED</text><text fill="#eeeeee" stroke="none" font-family="Arial" font-size="24px" font-style="normal" font-weight="normal" text-decoration="none" x="400" y="0">UNREGISTERED</text><text fill="#eeeeee" stroke="none" font-family="Arial" font-size="24px" font-style="normal" font-weight="normal" text-decoration="none" x="400" y="30">UNREGISTERED</text><text fill="#eeeeee" stroke="none" font-family="Arial" font-size="24px" font-style="normal" font-weight="normal" text-decoration="none" x="400" y="60">UNREGISTERED</text><text fill="#eeeeee" stroke="none" font-family="Arial" font-size="24px" font-style="normal" font-weight="normal" text-decoration="none" x="400" y="90">UNREGISTERED</text><text fill="#eeeeee" stroke="none" font-family="Arial" font-size="24px" font-style="normal" font-weight="normal" text-decoration="none" x="400" y="120">UNREGISTERED</text><text fill="#eeeeee" stroke="none" font-family="Arial" font-size="24px" font-style="normal" font-weight="normal" text-decoration="none" x="400" y="150">UNREGISTERED</text><text fill="#eeeeee" stroke="none" font-family="Arial" font-size="24px" font-style="normal" font-weight="normal" text-decoration="none" x="400" y="180">UNREGISTERED</text><text fill="#eeeeee" stroke="none" font-family="Arial" font-size="24px" font-style="normal" font-weight="normal" text-decoration="none" x="400" y="210">UNREGISTERED</text><text fill="#eeeeee" stroke="none" font-family="Arial" font-size="24px" font-style="normal" font-weight="normal" text-decoration="none" x="400" y="240">UNREGISTERED</text><text fill="#eeeeee" stroke="none" font-family="Arial" font-size="24px" font-style="normal" font-weight="normal" text-decoration="none" x="400" y="270">UNREGISTERED</text><text fill="#eeeeee" stroke="none" font-family="Arial" font-size="24px" font-style="normal" font-weight="normal" text-decoration="none" x="400" y="300">UNREGISTERED</text><text fill="#eeeeee" stroke="none" font-family="Arial" font-size="24px" font-style="normal" font-weight="normal" text-decoration="none" x="600" y="0">UNREGISTERED</text><text fill="#eeeeee" stroke="none" font-family="Arial" font-size="24px" font-style="normal" font-weight="normal" text-decoration="none" x="600" y="30">UNREGISTERED</text><text fill="#eeeeee" stroke="none" font-family="Arial" font-size="24px" font-style="normal" font-weight="normal" text-decoration="none" x="600" y="60">UNREGISTERED</text><text fill="#eeeeee" stroke="none" font-family="Arial" font-size="24px" font-style="normal" font-weight="normal" text-decoration="none" x="600" y="90">UNREGISTERED</text><text fill="#eeeeee" stroke="none" font-family="Arial" font-size="24px" font-style="normal" font-weight="normal" text-decoration="none" x="600" y="120">UNREGISTERED</text><text fill="#eeeeee" stroke="none" font-family="Arial" font-size="24px" font-style="normal" font-weight="normal" text-decoration="none" x="600" y="150">UNREGISTERED</text><text fill="#eeeeee" stroke="none" font-family="Arial" font-size="24px" font-style="normal" font-weight="normal" text-decoration="none" x="600" y="180">UNREGISTERED</text><text fill="#eeeeee" stroke="none" font-family="Arial" font-size="24px" font-style="normal" font-weight="normal" text-decoration="none" x="600" y="210">UNREGISTERED</text><text fill="#eeeeee" stroke="none" font-family="Arial" font-size="24px" font-style="normal" font-weight="normal" text-decoration="none" x="600" y="240">UNREGISTERED</text><text fill="#eeeeee" stroke="none" font-family="Arial" font-size="24px" font-style="normal" font-weight="normal" text-decoration="none" x="600" y="270">UNREGISTERED</text><text fill="#eeeeee" stroke="none" font-family="Arial" font-size="24px" font-style="normal" font-weight="normal" text-decoration="none" x="600" y="300">UNREGISTERED</text><g transform="translate(-22,-118) scale(1,1)"><rect fill="#ffffff" stroke="none" x="32" y="128" width="696" height="304"/></g><g transform="translate(-22,-118) scale(1,1)"><path fill="none" stroke="#000000" d="M 32 128 L 728 128 L 728 432 L 32 432 L 32 128 Z Z" stroke-miterlimit="10"/></g><g transform="translate(-22,-118) scale(1,1)"><rect fill="#ffffff" stroke="none" x="48" y="144" width="656" height="160"/></g><g transform="translate(-22,-118) scale(1,1)"><path fill="none" stroke="#000000" d="M 48 144 L 704 144 L 704 304 L 48 304 L 48 144 Z Z" stroke-miterlimit="10"/></g><g transform="translate(-22,-118) scale(1,1)"><rect fill="#C0C0C0" stroke="none" x="71" y="199" width="359.8095703125" height="72" opacity="0.2"/></g><g transform="translate(-22,-118) scale(1,1)"><rect fill="#ffffff" stroke="none" x="64" y="192" width="359.8095703125" height="72"/></g><g transform="translate(-22,-118) scale(1,1)"><path fill="none" stroke="#000000" d="M 64 192 L 423.8095703125 192 L 423.8095703125 264 L 64 264 L 64 192 Z Z" stroke-miterlimit="10"/></g><g transform="translate(-22,-118) scale(1,1)"><path fill="none" stroke="#000000" d="M 64 217 L 423.8095703125 217" stroke-miterlimit="10"/></g><g transform="translate(-22,-118) scale(1,1)"><path fill="none" stroke="#000000" d="M 64 227 L 423.8095703125 227" stroke-miterlimit="10"/></g><g transform="translate(-22,-118) scale(1,1)"><g><path fill="none" stroke="none"/><text fill="#000000" stroke="none" font-family="Arial" font-size="13px" font-style="normal" font-weight="bold" text-decoration="none" x="211.75390625" y="211.5">HttpServlet</text></g></g><g transform="translate(-22,-118) scale(1,1)"><g><path fill="none" stroke="none"/><text fill="#000000" stroke="none" font-family="Arial" font-size="13px" font-style="normal" font-weight="normal" text-decoration="none" x="69" y="244.5">+doGet(HttpServletRequest req, HttpServletResponse resp)</text></g></g><g transform="translate(-22,-118) scale(1,1)"><g><path fill="none" stroke="none"/><text fill="#000000" stroke="none" font-family="Arial" font-size="13px" font-style="normal" font-weight="normal" text-decoration="none" x="69" y="259.5">+doPost(HttpServletRequest req, HttpServletResponse resp)</text></g></g><g transform="translate(-22,-118) scale(1,1)"><rect fill="#C0C0C0" stroke="none" x="207" y="359" width="91.01806640625" height="54" opacity="0.2"/></g><g transform="translate(-22,-118) scale(1,1)"><rect fill="#ffffff" stroke="none" x="200" y="352" width="91.01806640625" height="54"/></g><g transform="translate(-22,-118) scale(1,1)"><path fill="none" stroke="#000000" d="M 200 352 L 291.01806640625 352 L 291.01806640625 406 L 200 406 L 200 352 Z Z" stroke-miterlimit="10"/></g><g transform="translate(-22,-118) scale(1,1)"><path fill="none" stroke="#000000" d="M 200 377 L 291.01806640625 377" stroke-miterlimit="10"/></g><g transform="translate(-22,-118) scale(1,1)"><path fill="none" stroke="#000000" d="M 200 387 L 291.01806640625 387" stroke-miterlimit="10"/></g><g transform="translate(-22,-118) scale(1,1)"><path fill="none" stroke="#000000" d="M 200 397 L 291.01806640625 397" stroke-miterlimit="10"/></g><g transform="translate(-22,-118) scale(1,1)"><g><path fill="none" stroke="none"/><text fill="#000000" stroke="none" font-family="Arial" font-size="13px" font-style="normal" font-weight="bold" text-decoration="none" x="218.42041015625" y="371.5">MiServlet</text></g></g><g transform="translate(-22,-118) scale(1,1)"><rect fill="#C0C0C0" stroke="none" x="551" y="247" width="146.1220703125" height="57" opacity="0.2"/></g><g transform="translate(-22,-118) scale(1,1)"><rect fill="#ffffff" stroke="none" x="544" y="240" width="146.1220703125" height="57"/></g><g transform="translate(-22,-118) scale(1,1)"><path fill="none" stroke="#000000" d="M 544 240 L 690.1220703125 240 L 690.1220703125 297 L 544 297 L 544 240 Z Z" stroke-miterlimit="10"/></g><g transform="translate(-22,-118) scale(1,1)"><path fill="none" stroke="#000000" d="M 544 265 L 690.1220703125 265" stroke-miterlimit="10"/></g><g transform="translate(-22,-118) scale(1,1)"><path fill="none" stroke="#000000" d="M 544 275 L 690.1220703125 275" stroke-miterlimit="10"/></g><g transform="translate(-22,-118) scale(1,1)"><g><path fill="none" stroke="none"/><text fill="#000000" stroke="none" font-family="Arial" font-size="13px" font-style="normal" font-weight="bold" text-decoration="none" x="555.64111328125" y="259.5">HttpServletResponse</text></g></g><g transform="translate(-22,-118) scale(1,1)"><g><path fill="none" stroke="none"/><text fill="#000000" stroke="none" font-family="Arial" font-size="13px" font-style="normal" font-weight="normal" text-decoration="none" x="549" y="292.5">+getWriter(): PrintWriter</text></g></g><g transform="translate(-22,-118) scale(1,1)"><rect fill="#C0C0C0" stroke="none" x="567" y="167" width="129.63720703125" height="57" opacity="0.2"/></g><g transform="translate(-22,-118) scale(1,1)"><rect fill="#ffffff" stroke="none" x="560" y="160" width="129.63720703125" height="57"/></g><g transform="translate(-22,-118) scale(1,1)"><path fill="none" stroke="#000000" d="M 560 160 L 689.63720703125 160 L 689.63720703125 217 L 560 217 L 560 160 Z Z" stroke-miterlimit="10"/></g><g transform="translate(-22,-118) scale(1,1)"><path fill="none" stroke="#000000" d="M 560 185 L 689.63720703125 185" stroke-miterlimit="10"/></g><g transform="translate(-22,-118) scale(1,1)"><path fill="none" stroke="#000000" d="M 560 195 L 689.63720703125 195" stroke-miterlimit="10"/></g><g transform="translate(-22,-118) scale(1,1)"><g><path fill="none" stroke="none"/><text fill="#000000" stroke="none" font-family="Arial" font-size="13px" font-style="normal" font-weight="bold" text-decoration="none" x="568.457763671875" y="179.5">HttpServletRequest</text></g></g><g transform="translate(-22,-118) scale(1,1)"><g><path fill="none" stroke="none"/><text fill="#000000" stroke="none" font-family="Arial" font-size="13px" font-style="normal" font-weight="normal" text-decoration="none" x="565" y="212.5">+getParameter()</text></g></g><g transform="translate(-22,-118) scale(1,1)"><path fill="none" stroke="#000000" d="M 245 351 L 243 265" stroke-miterlimit="10"/></g><g transform="translate(-22,-118) scale(1,1)"><path fill="#FFFFFF" stroke="none" d="M 251.88931457166507 285.124117035189 L 243 265 L 235.05579499275092 285.5155942346986"/></g><g transform="translate(-22,-118) scale(1,1)"><path fill="none" stroke="#000000" d="M 251.88931457166507 285.124117035189 L 243 265 L 235.05579499275092 285.5155942346986 L 251.88931457166507 285.124117035189" stroke-miterlimit="10"/></g><g transform="translate(-22,-118) scale(1,1)"><path fill="none" stroke="#000000" d="M 543 260 L 425 247" stroke-miterlimit="10"/></g><g transform="translate(-22,-118) scale(1,1)"><g><path fill="none" stroke="none"/><text fill="#000000" stroke="none" font-family="Arial" font-size="13px" font-style="normal" font-weight="normal" text-decoration="none" x="467.5" y="273.5">+use</text></g></g><g transform="translate(-22,-118) scale(1,1)"><path fill="none" stroke="#000000" d="M 559 195 L 425 209" stroke-miterlimit="10"/></g><g transform="translate(-22,-118) scale(1,1)"><g><path fill="none" stroke="none"/><text fill="#000000" stroke="none" font-family="Arial" font-size="13px" font-style="normal" font-weight="normal" text-decoration="none" x="478.5" y="222.5">+use</text></g></g><g transform="translate(-22,-118) scale(1,1)"><path fill="#ffffff" stroke="none" d="M 400 352 L 619.98193359375 352 L 629.98193359375 362 L 629.98193359375 399 L 400 399 L 400 352"/></g><g transform="translate(-22,-118) scale(1,1)"><path fill="none" stroke="#000000" d="M 400 352 L 619.98193359375 352 L 629.98193359375 362 L 629.98193359375 399 L 400 399 L 400 352 L 400 352" stroke-miterlimit="10"/></g><g transform="translate(-22,-118) scale(1,1)"><path fill="none" stroke="#000000" d="M 619.98193359375 352 L 619.98193359375 362 L 629.98193359375 362 L 619.98193359375 352" stroke-miterlimit="10"/></g><g transform="translate(-22,-118) scale(1,1)"><g><path fill="none" stroke="none"/><text fill="#000000" stroke="none" font-family="Arial" font-size="13px" font-style="normal" font-weight="normal" text-decoration="none" x="405" y="370">Debe anotarse con</text><text fill="#000000" stroke="none" font-family="Arial" font-size="13px" font-style="normal" font-weight="normal" text-decoration="none" x="405" y="383">@WebServlet("nombre _servlet")</text></g></g><g transform="translate(-22,-118) scale(1,1)"><path fill="none" stroke="#000000" d="M 292 378 L 399 377" stroke-miterlimit="10" stroke-dasharray="3"/></g><g transform="translate(-22,-118) scale(1,1)"><g><path fill="none" stroke="none"/><text fill="#000000" stroke="none" font-family="Arial" font-size="13px" font-style="normal" font-weight="normal" text-decoration="none" x="53" y="162">javax.servlet.http</text></g></g></g></svg>