<svg id="Capa_1" data-name="Capa 1" xmlns="http://www.w3.org/2000/svg" viewBox="0 0 1024 768"><defs><style>.cls-1,.cls-4,.cls-5,.cls-6{fill:none;}.cls-1{stroke:#070000;stroke-width:3px;}.cls-1,.cls-11,.cls-3,.cls-31,.cls-4,.cls-5,.cls-6,.cls-7,.cls-8,.cls-9{stroke-miterlimit:10;}.cls-2{fill:#070000;}.cls-3{fill:#07c7b8;}.cls-3,.cls-4,.cls-5,.cls-6,.cls-7,.cls-8,.cls-9{stroke:#1d1d1b;}.cls-5{stroke-dasharray:6.02 6.02;}.cls-6{stroke-dasharray:5.98 5.98;}.cls-7{fill:#ffabe4;}.cls-8{fill:#ffd903;}.cls-11,.cls-9{fill:#fff;}.cls-10{fill:#0a71b3;}.cls-11{stroke:#040404;}.cls-12{font-size:22.74px;font-family:MyriadPro-Regular, Myriad Pro;}.cls-13{letter-spacing:-0.01em;}.cls-14{letter-spacing:-0.04em;}.cls-15{letter-spacing:-0.03em;}.cls-16{letter-spacing:0em;}.cls-17{letter-spacing:0.01em;}.cls-18{letter-spacing:0.02em;}.cls-19{letter-spacing:-0.04em;}.cls-20{letter-spacing:-0.03em;}.cls-21{letter-spacing:0em;}.cls-22{letter-spacing:-0.01em;}.cls-23{letter-spacing:-0.01em;}.cls-24{letter-spacing:-0.01em;}.cls-25{letter-spacing:0em;}.cls-26{letter-spacing:0em;}.cls-27{letter-spacing:0em;}.cls-28{letter-spacing:-0.01em;}.cls-29{letter-spacing:-0.01em;}.cls-30{letter-spacing:0em;}.cls-31{fill:#cecece;stroke:#000;}.cls-32{letter-spacing:0.04em;}</style></defs><title>ArquitecturaWeb</title><line class="cls-1" x1="149.47" y1="151.55" x2="349.32" y2="150.59"/><polygon class="cls-2" points="151.69 159.02 138.71 151.61 151.62 144.06 151.69 159.02"/><polygon class="cls-2" points="347.17 158.08 360.09 150.54 347.1 143.12 347.17 158.08"/><rect class="cls-3" x="360.09" y="101.46" width="363.64" height="401.84"/><polyline class="cls-4" points="1016 534.16 1016 537.16 1013 537.16"/><line class="cls-5" x1="1006.98" y1="537.16" x2="323.52" y2="537.16"/><polyline class="cls-4" points="320.51 537.16 317.51 537.16 317.51 534.16"/><line class="cls-6" x1="317.51" y1="528.17" x2="317.51" y2="64.47"/><polyline class="cls-4" points="317.51 61.48 317.51 58.48 320.51 58.48"/><line class="cls-5" x1="326.53" y1="58.48" x2="1009.99" y2="58.48"/><polyline class="cls-4" points="1013 58.48 1016 58.48 1016 61.48"/><line class="cls-6" x1="1016" y1="67.47" x2="1016" y2="531.17"/><rect class="cls-7" x="750.07" y="101.46" width="221.37" height="401.84"/><rect class="cls-8" x="791.12" y="138.48" width="146.72" height="329.45"/><rect class="cls-9" x="436.22" y="397.95" width="200.82" height="54.32"/><rect class="cls-9" x="17.79" y="114.26" width="120.92" height="67.68"/><rect class="cls-9" x="489.93" y="308.34" width="147.11" height="56.32"/><rect class="cls-9" x="16" y="247.63" width="120.92" height="60.32"/><path class="cls-10" d="M834.19,665.17h0a2.07,2.07,0,0,1,0-.35Z"/><path class="cls-11" d="M894.78,665.17v-.35a2.07,2.07,0,0,1,0,.35Z"/><path class="cls-10" d="M878.4,656.86a97.31,97.31,0,0,1-27.83,0c-9.73-1.49-16.38-4.49-16.38-8v15.91a2.07,2.07,0,0,0,0,.35c.63,4.78,13.94,8.6,30.27,8.6s29.63-3.82,30.26-8.6a2.07,2.07,0,0,0,0-.35V648.91C894.78,652.37,888.13,655.37,878.4,656.86Z"/><path class="cls-10" d="M878.4,638.62a97.31,97.31,0,0,1-27.83,0c-9.73-1.49-16.38-4.49-16.38-8v15.9a2.19,2.19,0,0,0,0,.36c.63,4.77,13.94,8.59,30.27,8.59s29.63-3.82,30.26-8.59a2.19,2.19,0,0,0,0-.36v-15.9C894.78,634.13,888.13,637.13,878.4,638.62Z"/><path class="cls-10" d="M878.4,619.68a97.31,97.31,0,0,1-27.83,0c-9.73-1.48-16.38-4.49-16.38-7.95v15.91a2.07,2.07,0,0,0,0,.35c.63,4.78,13.94,8.6,30.27,8.6s29.63-3.82,30.26-8.6a2.07,2.07,0,0,0,0-.35V611.73C894.78,615.19,888.13,618.2,878.4,619.68Z"/><path class="cls-10" d="M864.49,597.12c-16.73,0-30.3,4-30.3,9v2.76c0,4.94,13.57,8.95,30.3,8.95s30.29-4,30.29-8.95v-2.76C894.78,601.13,881.22,597.12,864.49,597.12Z"/><text class="cls-12" transform="translate(814.29 90.79)"><tspan class="cls-13">C</tspan><tspan x="13.03" y="0">apa Negocio</tspan></text><path d="M836,299.35l.24-2.54h-.09l-1,2.2-4.44,7.05h-.68L825.41,299l-.93-2.16h-.12l.37,2.5v10.28h-2.14V293.69h1.71l5.38,8.12.85,1.73h0l.8-1.78,5.11-8.07h1.8v15.92H836Z"/><path d="M841.62,301.65a11.36,11.36,0,0,1,.49-3.49,7.33,7.33,0,0,1,1.41-2.59,6,6,0,0,1,2.25-1.62,8.54,8.54,0,0,1,6.16.05,6.15,6.15,0,0,1,2.26,1.68,7.37,7.37,0,0,1,1.34,2.6,12.27,12.27,0,0,1,.44,3.37,11.67,11.67,0,0,1-.49,3.49,7.19,7.19,0,0,1-1.42,2.59,6.22,6.22,0,0,1-2.26,1.62,8.59,8.59,0,0,1-6.18-.05,6,6,0,0,1-2.22-1.68,7,7,0,0,1-1.33-2.61A11.77,11.77,0,0,1,841.62,301.65Zm2.41,0a9.76,9.76,0,0,0,.29,2.41,6.09,6.09,0,0,0,.86,2,4.1,4.1,0,0,0,3.6,1.85,4.32,4.32,0,0,0,3.49-1.51,7.22,7.22,0,0,0,1.29-4.74,9.72,9.72,0,0,0-.29-2.39,5.89,5.89,0,0,0-.86-2,4.12,4.12,0,0,0-3.63-1.87,4.28,4.28,0,0,0-3.46,1.53A7.23,7.23,0,0,0,844,301.65Z"/><path d="M859.31,293.69c.3,0,.66-.08,1.06-.1l1.25-.06,1.27,0H864a9.93,9.93,0,0,1,3.63.6,6.9,6.9,0,0,1,2.54,1.67,6.83,6.83,0,0,1,1.52,2.55,10.08,10.08,0,0,1,.5,3.23,10.31,10.31,0,0,1-.47,3.08,7.32,7.32,0,0,1-1.49,2.65,7.44,7.44,0,0,1-2.63,1.86,9.56,9.56,0,0,1-3.87.7c-.26,0-.61,0-1,0l-1.33,0-1.26-.06a7.18,7.18,0,0,1-.83-.08Zm4.8,1.8h-.68l-.73,0-.66.05-.46,0v12.14a2.89,2.89,0,0,0,.45,0l.69,0,.68,0h.46a6.65,6.65,0,0,0,2.85-.53,4.91,4.91,0,0,0,1.84-1.42,5.24,5.24,0,0,0,1-2,9.47,9.47,0,0,0,.29-2.33,8.15,8.15,0,0,0-.28-2.1,5.36,5.36,0,0,0-.93-1.94,5,5,0,0,0-1.75-1.44A5.9,5.9,0,0,0,864.11,295.49Z"/><path d="M875.57,293.69h9.61v2h-7.34v4.8h6.71v2h-6.71v5.12h7.46v2h-9.73Z"/><path d="M899.28,309.61H888.87V293.69h2.27v13.92h8.14Z"/><path d="M899.53,301.65a11.67,11.67,0,0,1,.49-3.49,7.33,7.33,0,0,1,1.41-2.59,6.07,6.07,0,0,1,2.25-1.62,8.54,8.54,0,0,1,6.16.05,6.07,6.07,0,0,1,2.26,1.68,7.37,7.37,0,0,1,1.34,2.6,12.27,12.27,0,0,1,.44,3.37,11.36,11.36,0,0,1-.49,3.49,7,7,0,0,1-1.42,2.59,6.14,6.14,0,0,1-2.26,1.62,8.59,8.59,0,0,1-6.18-.05,6,6,0,0,1-2.22-1.68A7.16,7.16,0,0,1,900,305,11.77,11.77,0,0,1,899.53,301.65Zm2.41,0a9.76,9.76,0,0,0,.29,2.41,6.31,6.31,0,0,0,.86,2,4.6,4.6,0,0,0,7.1.34,7.28,7.28,0,0,0,1.28-4.74,9.72,9.72,0,0,0-.28-2.39,6.1,6.1,0,0,0-.87-2,4.41,4.41,0,0,0-1.48-1.37,4.35,4.35,0,0,0-2.15-.5,4.28,4.28,0,0,0-3.46,1.53A7.23,7.23,0,0,0,901.94,301.65Z"/><text class="cls-12" transform="translate(489.93 90.79)"><tspan class="cls-13">C</tspan><tspan x="13.03" y="0">apa</tspan><tspan class="cls-14" x="47.88" y="0"> </tspan><tspan class="cls-15" x="51.89" y="0">W</tspan><tspan class="cls-16" x="70.37" y="0">eb </tspan></text><text class="cls-12" transform="translate(635.04 49.18)"><tspan class="cls-17">S</tspan><tspan x="11.35" y="0">e</tspan><tspan class="cls-18" x="22.74" y="0">r</tspan><tspan x="30.74" y="0">vidor</tspan><tspan class="cls-19" x="79.74" y="0"> </tspan><tspan class="cls-20" x="83.74" y="0">W</tspan><tspan class="cls-16" x="102.23" y="0">eb</tspan></text><text class="cls-12" transform="translate(799.35 703.24)">Base de D<tspan class="cls-21" x="92.68" y="0">a</tspan><tspan class="cls-22" x="103.54" y="0">t</tspan><tspan x="110.93" y="0">os</tspan></text><path d="M538,338.51l.59,2.48h0l.62-2.52,4.09-10.55h2.27L539,344.06h-1.14l-6.68-16.14h2.5Z"/><path d="M548.9,329.42h-1.82v-1.5H553v1.5h-1.82v12.91H553v1.5h-5.92v-1.5h1.82Z"/><path d="M564.41,339.63a1.85,1.85,0,0,0-.61-1.47,5.91,5.91,0,0,0-1.55-.94c-.62-.26-1.29-.51-2-.74a11,11,0,0,1-2-.9,4.87,4.87,0,0,1-1.55-1.41,3.81,3.81,0,0,1-.61-2.25,3.85,3.85,0,0,1,1.42-3.12,6.24,6.24,0,0,1,4.06-1.18,16.07,16.07,0,0,1,2.79.23,7.52,7.52,0,0,1,2,.59l-.7,1.91a7.2,7.2,0,0,0-1.7-.5,13,13,0,0,0-2.5-.23,3.47,3.47,0,0,0-2.32.66,1.91,1.91,0,0,0-.78,1.51,1.79,1.79,0,0,0,.62,1.41,5.71,5.71,0,0,0,1.54,1c.62.28,1.29.55,2,.81a10.22,10.22,0,0,1,2,.95,5.36,5.36,0,0,1,1.55,1.4,3.47,3.47,0,0,1,.61,2.13,4.37,4.37,0,0,1-.41,1.93,4.1,4.1,0,0,1-1.18,1.48,5.43,5.43,0,0,1-1.86.94,8.61,8.61,0,0,1-2.48.33,14.82,14.82,0,0,1-3.15-.29,8.33,8.33,0,0,1-1.94-.6l.75-2a9.46,9.46,0,0,0,1.71.58,10.55,10.55,0,0,0,2.54.29,6.94,6.94,0,0,0,1.48-.15,4.09,4.09,0,0,0,1.19-.45,2.22,2.22,0,0,0,.8-.78A2.12,2.12,0,0,0,564.41,339.63Z"/><path d="M581.21,329.92h-5.36v13.91h-2.28V329.92h-5.36v-2h13Z"/><path d="M590.48,339.63h-6.24l-1.66,4.2H580.3l6.55-16.14H588l6.57,16.14h-2.41Zm-5.56-1.87h4.91L588,333.24l-.6-2.43h0l-.61,2.47Z"/><rect class="cls-9" x="436.23" y="163.9" width="200.82" height="75.81"/><path d="M466.86,207.83a4.67,4.67,0,0,1-1.91.76,12.94,12.94,0,0,1-2.46.22,8.78,8.78,0,0,1-2.9-.49,6.84,6.84,0,0,1-2.42-1.5,7.18,7.18,0,0,1-1.66-2.57,10.06,10.06,0,0,1-.61-3.7,9.37,9.37,0,0,1,.68-3.79,7.22,7.22,0,0,1,1.77-2.56,7,7,0,0,1,2.46-1.45,8.59,8.59,0,0,1,2.7-.45,15,15,0,0,1,2.46.16,8.52,8.52,0,0,1,1.61.41l-.5,1.95a8.48,8.48,0,0,0-3.38-.52,6.06,6.06,0,0,0-2,.33A4.6,4.6,0,0,0,459,195.7a5.33,5.33,0,0,0-1.22,1.93,8.34,8.34,0,0,0-.45,2.92,7.8,7.8,0,0,0,.43,2.72,5.72,5.72,0,0,0,1.19,2,5.07,5.07,0,0,0,1.8,1.18,6.35,6.35,0,0,0,2.26.4,7.8,7.8,0,0,0,1.93-.21,5.46,5.46,0,0,0,1.39-.52Z"/><path d="M468.49,200.55a11.72,11.72,0,0,1,.49-3.49,7.42,7.42,0,0,1,1.41-2.59,6.11,6.11,0,0,1,2.26-1.61,8.47,8.47,0,0,1,6.16,0,6.22,6.22,0,0,1,2.25,1.68,7.25,7.25,0,0,1,1.34,2.61,12.2,12.2,0,0,1,.44,3.36,11.32,11.32,0,0,1-.49,3.49,7.09,7.09,0,0,1-1.42,2.6,6.11,6.11,0,0,1-2.26,1.61,7.76,7.76,0,0,1-3,.56,7.49,7.49,0,0,1-3.16-.61,6,6,0,0,1-2.23-1.68,7.19,7.19,0,0,1-1.33-2.6A11.89,11.89,0,0,1,468.49,200.55Zm2.41,0a9.85,9.85,0,0,0,.29,2.42,6.52,6.52,0,0,0,.86,2,4.26,4.26,0,0,0,1.48,1.35,4.77,4.77,0,0,0,5.62-1,7.24,7.24,0,0,0,1.28-4.74,9.72,9.72,0,0,0-.28-2.39,6.3,6.3,0,0,0-.87-2,4.35,4.35,0,0,0-1.47-1.36,4.72,4.72,0,0,0-5.62,1A7.2,7.2,0,0,0,470.9,200.55Z"/><path d="M489.5,198.39l-1.36-2.22h-.09l.27,2.22v10.12h-2.14V192.37h1.28l8.12,10.32,1.29,2.12H497l-.27-2.12V192.6h2.14v16.14h-1.27Z"/><path d="M514.31,194.6h-5.37v13.91h-2.27V194.6H501.3v-2h13Z"/><path d="M516.77,192.75c.31-.06.67-.11,1.05-.15l1.17-.12,1.19-.07,1.11,0a10.42,10.42,0,0,1,2.19.23,5.48,5.48,0,0,1,1.87.75,3.91,3.91,0,0,1,1.29,1.36,4.08,4.08,0,0,1,.49,2.08,5,5,0,0,1-.29,1.73,4.5,4.5,0,0,1-2.06,2.35,5.87,5.87,0,0,1-1.56.6l1.19.8,4.27,6.22h-2.61l-4.73-6.71-2.3-.31v7h-2.27Zm4.59,1.64h-.65l-.65,0-.59.05a2.74,2.74,0,0,0-.43.07V200h1.86a6.46,6.46,0,0,0,1.51-.17,3.6,3.6,0,0,0,1.21-.52,2.57,2.57,0,0,0,.81-.92,3.07,3.07,0,0,0,.29-1.39,2.34,2.34,0,0,0-.86-1.93A3.88,3.88,0,0,0,521.36,194.39Z"/><path d="M530.11,200.55a11.41,11.41,0,0,1,.49-3.49,7.42,7.42,0,0,1,1.41-2.59,6,6,0,0,1,2.25-1.61,8.47,8.47,0,0,1,6.16,0,6.14,6.14,0,0,1,2.25,1.68,7.27,7.27,0,0,1,1.35,2.61,12.2,12.2,0,0,1,.44,3.36A11.32,11.32,0,0,1,544,204a7.24,7.24,0,0,1-1.42,2.6,6.19,6.19,0,0,1-2.26,1.61,7.78,7.78,0,0,1-3,.56,7.55,7.55,0,0,1-3.16-.61,6.12,6.12,0,0,1-2.23-1.68,7.17,7.17,0,0,1-1.32-2.6A11.89,11.89,0,0,1,530.11,200.55Zm2.41,0a9.85,9.85,0,0,0,.29,2.42,6.07,6.07,0,0,0,.86,2,4.26,4.26,0,0,0,1.48,1.35,4.76,4.76,0,0,0,5.61-1,7.18,7.18,0,0,0,1.29-4.74,10.23,10.23,0,0,0-.28-2.39,6.3,6.3,0,0,0-.87-2,4.38,4.38,0,0,0-1.48-1.36,4.7,4.7,0,0,0-5.61,1A7.2,7.2,0,0,0,532.52,200.55Z"/><path d="M558.22,208.51H547.8V192.6h2.28v13.91h8.14Z"/><path d="M567.3,204.3h-6.24l-1.66,4.21h-2.28l6.55-16.14h1.18l6.58,16.14H569Zm-5.56-1.86h4.91l-1.83-4.52-.6-2.44h-.05l-.61,2.48Z"/><path d="M573.63,192.6c.3,0,.66-.08,1.06-.11l1.25-.05,1.27,0h1.15a10,10,0,0,1,3.63.6,7,7,0,0,1,2.54,1.67,6.83,6.83,0,0,1,1.51,2.55,9.86,9.86,0,0,1,.5,3.23,10.26,10.26,0,0,1-.46,3.08,7.24,7.24,0,0,1-1.49,2.65A7.44,7.44,0,0,1,582,208a9.55,9.55,0,0,1-3.87.71l-1,0-1.33-.05q-.68,0-1.26-.06a7.18,7.18,0,0,1-.83-.08Zm4.8,1.79h-.68l-.73,0-.66.05-.46,0v12.14l.45,0,.69,0,.68,0h.46a6.65,6.65,0,0,0,2.85-.54,4.81,4.81,0,0,0,1.84-1.42,5.39,5.39,0,0,0,1-2,9.47,9.47,0,0,0,.29-2.33,8.53,8.53,0,0,0-.28-2.09,5.49,5.49,0,0,0-.93-1.95,5.11,5.11,0,0,0-1.75-1.44A5.93,5.93,0,0,0,578.43,194.39Z"/><path d="M589.18,200.55a11.72,11.72,0,0,1,.49-3.49,7.42,7.42,0,0,1,1.41-2.59,6.16,6.16,0,0,1,2.25-1.61,8.47,8.47,0,0,1,6.16,0,6.17,6.17,0,0,1,2.26,1.68,7.41,7.41,0,0,1,1.34,2.61,12.2,12.2,0,0,1,.44,3.36A11.32,11.32,0,0,1,603,204a7.24,7.24,0,0,1-1.42,2.6,6.19,6.19,0,0,1-2.26,1.61,7.78,7.78,0,0,1-3,.56,7.55,7.55,0,0,1-3.16-.61,6,6,0,0,1-2.22-1.68,7.19,7.19,0,0,1-1.33-2.6A11.89,11.89,0,0,1,589.18,200.55Zm2.41,0a9.85,9.85,0,0,0,.29,2.42,6.28,6.28,0,0,0,.86,2,4.26,4.26,0,0,0,1.48,1.35,4.77,4.77,0,0,0,5.62-1,7.24,7.24,0,0,0,1.28-4.74,9.26,9.26,0,0,0-.29-2.39,6.07,6.07,0,0,0-.86-2,4.38,4.38,0,0,0-1.48-1.36,4.7,4.7,0,0,0-5.61,1A7.2,7.2,0,0,0,591.59,200.55Z"/><path d="M606.87,192.75c.32-.06.67-.11,1.06-.15l1.17-.12,1.18-.07,1.12,0a10.5,10.5,0,0,1,2.19.23,5.34,5.34,0,0,1,1.86.75,3.94,3.94,0,0,1,1.3,1.36,4.08,4.08,0,0,1,.49,2.08,4.8,4.8,0,0,1-.3,1.73,4.42,4.42,0,0,1-.81,1.36,4.59,4.59,0,0,1-1.24,1,5.87,5.87,0,0,1-1.56.6l1.18.8,4.28,6.22h-2.62l-4.73-6.71-2.3-.31v7h-2.27Zm4.6,1.64h-.65l-.65,0-.59.05a3.13,3.13,0,0,0-.44.07V200H611a6.46,6.46,0,0,0,1.51-.17,3.69,3.69,0,0,0,1.21-.52,2.45,2.45,0,0,0,.8-.92,2.94,2.94,0,0,0,.3-1.39,2.37,2.37,0,0,0-.86-1.93A3.88,3.88,0,0,0,611.47,194.39Z"/><text class="cls-12" transform="translate(25.79 155.94)">N<tspan class="cls-23" x="14.96" y="0">a</tspan><tspan class="cls-24" x="25.74" y="0">v</tspan><tspan class="cls-25" x="36.45" y="0">egador</tspan></text><text class="cls-12" transform="translate(25.95 272.11)"><tspan class="cls-26">A</tspan><tspan x="13.85" y="0">plicación</tspan><tspan x="5.4" y="27.28">Esc</tspan><tspan class="cls-27" x="35.78" y="27.28">r</tspan><tspan x="43.3" y="27.28">i</tspan><tspan class="cls-28" x="48.62" y="27.28">t</tspan><tspan class="cls-25" x="56.01" y="27.28">o</tspan><tspan class="cls-27" x="68.5" y="27.28">r</tspan><tspan x="76.02" y="27.28">io</tspan></text><rect class="cls-9" x="16.89" y="373.64" width="120.92" height="60.32"/><text class="cls-12" transform="translate(23.83 410.92)">Dispositi<tspan class="cls-29" x="82.06" y="0">v</tspan><tspan class="cls-30" x="92.77" y="0">o</tspan></text><path d="M463.15,429.75a1.85,1.85,0,0,0-.62-1.46,5.59,5.59,0,0,0-1.54-.94c-.63-.26-1.29-.51-2-.75a10.59,10.59,0,0,1-2-.89,5.08,5.08,0,0,1-1.54-1.41,4.22,4.22,0,0,1,.81-5.37,6.15,6.15,0,0,1,4.05-1.18,16.15,16.15,0,0,1,2.8.22,7.6,7.6,0,0,1,2,.6l-.7,1.91a7.09,7.09,0,0,0-1.71-.51,12.92,12.92,0,0,0-2.5-.22,3.57,3.57,0,0,0-2.32.65,2,2,0,0,0-.77,1.51,1.79,1.79,0,0,0,.61,1.42,6.22,6.22,0,0,0,1.55,1c.62.28,1.29.54,2,.8a11.18,11.18,0,0,1,2,1,5.46,5.46,0,0,1,1.55,1.39,3.58,3.58,0,0,1,.61,2.13,4.48,4.48,0,0,1-.41,1.93,4.12,4.12,0,0,1-1.18,1.48,5.39,5.39,0,0,1-1.87.94,8.49,8.49,0,0,1-2.47.33,14.76,14.76,0,0,1-3.15-.28,9.55,9.55,0,0,1-1.95-.6l.75-2a8.74,8.74,0,0,0,1.72.57,10,10,0,0,0,2.53.29,6.89,6.89,0,0,0,1.48-.14,4,4,0,0,0,1.19-.45,2.3,2.3,0,0,0,.8-.78A2.16,2.16,0,0,0,463.15,429.75Z"/><path d="M468.53,418h9.62v2h-7.34v4.8h6.71v2h-6.71V432h7.46v2h-9.74Z"/><path d="M481.83,418.2c.32-.06.68-.11,1.06-.16l1.17-.11,1.19-.07,1.11,0a9.8,9.8,0,0,1,2.19.23,5.48,5.48,0,0,1,1.87.75,4,4,0,0,1,1.3,1.36,4.12,4.12,0,0,1,.48,2.07,4.72,4.72,0,0,1-.29,1.73,4.5,4.5,0,0,1-.82,1.37,4.83,4.83,0,0,1-1.24,1,6.64,6.64,0,0,1-1.56.6l1.18.8,4.28,6.22h-2.62l-4.73-6.71-2.29-.32v7h-2.28Zm4.6,1.64h-.65l-.65,0-.59.05a1.91,1.91,0,0,0-.43.07v5.5H486a6.61,6.61,0,0,0,1.52-.17,3.86,3.86,0,0,0,1.2-.52,2.6,2.6,0,0,0,.81-.93,3,3,0,0,0,.29-1.38,2.36,2.36,0,0,0-.86-1.94A3.88,3.88,0,0,0,486.43,419.84Z"/><path d="M500.3,428.64l.59,2.48h0l.62-2.53L505.64,418h2.28l-6.6,16.15h-1.14L493.5,418H496Z"/><path d="M511.23,419.54h-1.81V418h5.91v1.5h-1.82v12.92h1.82V434h-5.91v-1.5h1.81Z"/><path d="M530.17,433.28a4.7,4.7,0,0,1-1.9.76,13.91,13.91,0,0,1-2.46.21,8.74,8.74,0,0,1-2.9-.48,6.75,6.75,0,0,1-2.42-1.5,7.27,7.27,0,0,1-1.66-2.57,10.06,10.06,0,0,1-.61-3.7,9.46,9.46,0,0,1,.68-3.8,7.26,7.26,0,0,1,1.77-2.55,7,7,0,0,1,2.46-1.45,8.59,8.59,0,0,1,2.7-.45,15.07,15.07,0,0,1,2.46.16,8,8,0,0,1,1.61.41l-.5,1.95a8.33,8.33,0,0,0-3.39-.52,6.15,6.15,0,0,0-2,.33,4.45,4.45,0,0,0-1.72,1.07,5.12,5.12,0,0,0-1.22,1.93,8.34,8.34,0,0,0-.45,2.92,7.8,7.8,0,0,0,.43,2.72,5.44,5.44,0,0,0,1.19,1.95,5,5,0,0,0,1.8,1.19,6.35,6.35,0,0,0,2.26.39,7.84,7.84,0,0,0,1.93-.2,5.86,5.86,0,0,0,1.39-.52Z"/><path d="M534.47,419.54h-1.82V418h5.91v1.5h-1.81v12.92h1.81V434h-5.91v-1.5h1.82Z"/><path d="M541.45,426a11.67,11.67,0,0,1,.49-3.49,7.33,7.33,0,0,1,1.41-2.59,6.18,6.18,0,0,1,2.25-1.62,8.54,8.54,0,0,1,6.16.05A6.07,6.07,0,0,1,554,420a7.33,7.33,0,0,1,1.34,2.61,12.15,12.15,0,0,1,.44,3.36,11.32,11.32,0,0,1-.49,3.49,7.19,7.19,0,0,1-1.42,2.59,6.1,6.1,0,0,1-2.26,1.62,8.59,8.59,0,0,1-6.18-.05,6,6,0,0,1-2.22-1.68,7.19,7.19,0,0,1-1.33-2.6A11.89,11.89,0,0,1,541.45,426Zm2.41,0a9.91,9.91,0,0,0,.29,2.42,6.13,6.13,0,0,0,.86,2,4.28,4.28,0,0,0,1.48,1.36,4.82,4.82,0,0,0,5.62-1,7.28,7.28,0,0,0,1.28-4.74,9.26,9.26,0,0,0-.29-2.39,6,6,0,0,0-.86-2,4.56,4.56,0,0,0-7.09-.34A7.25,7.25,0,0,0,543.86,426Z"/><path d="M567,429.75a1.85,1.85,0,0,0-.61-1.46,5.66,5.66,0,0,0-1.55-.94c-.62-.26-1.29-.51-2-.75a10.31,10.31,0,0,1-2-.89,5,5,0,0,1-1.54-1.41,4.23,4.23,0,0,1,.8-5.37,6.18,6.18,0,0,1,4.06-1.18,16.15,16.15,0,0,1,2.8.22,7.6,7.6,0,0,1,2,.6l-.71,1.91a6.85,6.85,0,0,0-1.7-.51,12.92,12.92,0,0,0-2.5-.22,3.55,3.55,0,0,0-2.32.65,1.93,1.93,0,0,0-.77,1.51,1.79,1.79,0,0,0,.61,1.42,6.15,6.15,0,0,0,1.54,1c.63.28,1.29.54,2,.8a11.18,11.18,0,0,1,2,1,5.42,5.42,0,0,1,1.54,1.39,3.51,3.51,0,0,1,.62,2.13,4.48,4.48,0,0,1-.41,1.93,4,4,0,0,1-1.19,1.48,5.26,5.26,0,0,1-1.86.94,8.56,8.56,0,0,1-2.48.33,14.89,14.89,0,0,1-3.15-.28,9.63,9.63,0,0,1-1.94-.6l.75-2a8.74,8.74,0,0,0,1.72.57,10,10,0,0,0,2.53.29,7,7,0,0,0,1.48-.14,4,4,0,0,0,1.19-.45,2.39,2.39,0,0,0,.8-.78A2.15,2.15,0,0,0,567,429.75Z"/><path d="M582.13,428.37l.36,2.66h0l.41-2.71L586.47,418h1.14l3.54,10.33.41,2.66h.05l.42-2.71L594.82,418h2.27l-4.84,16.15H591l-3.48-10.35-.48-2.41h-.11l-.45,2.43L583,434.19h-1.32L576.69,418h2.41Z"/><path d="M599.3,418h9.61v2h-7.34v4.8h6.71v2h-6.71V432H609v2H599.3Z"/><path d="M623.28,421.73a3.67,3.67,0,0,1-.19,1.17,3.86,3.86,0,0,1-.59,1.09,4,4,0,0,1-1,.9,4.94,4.94,0,0,1-1.46.57v.09a5.62,5.62,0,0,1,1.41.36,3.85,3.85,0,0,1,1.21.75,3.6,3.6,0,0,1,1.16,2.77,3.9,3.9,0,0,1-.57,2.13,4.71,4.71,0,0,1-1.5,1.48,7.07,7.07,0,0,1-2.11.85,10.4,10.4,0,0,1-2.35.27h-1l-1.24,0-1.3-.09a9.94,9.94,0,0,1-1.14-.17V418.18a21.72,21.72,0,0,1,2.18-.25c.83-.06,1.73-.09,2.68-.09a12.91,12.91,0,0,1,2,.17,6.22,6.22,0,0,1,1.87.6,4,4,0,0,1,1.39,1.18A3.25,3.25,0,0,1,623.28,421.73ZM616.12,425l1,0,1-.08a6.57,6.57,0,0,0,1.07-.41,4.06,4.06,0,0,0,.9-.57,2.58,2.58,0,0,0,.61-.78,2.25,2.25,0,0,0,.22-1,2.29,2.29,0,0,0-.3-1.25,2.09,2.09,0,0,0-.81-.72,3.84,3.84,0,0,0-1.13-.35,9.11,9.11,0,0,0-1.29-.09c-.53,0-1,0-1.46,0s-.78.05-1,.08V425Zm-1.25,7.14a3,3,0,0,0,.48.07l.68,0,.75,0h.69a6.58,6.58,0,0,0,1.48-.16,4,4,0,0,0,1.25-.51,2.59,2.59,0,0,0,.87-.87,2.32,2.32,0,0,0,.33-1.26,2.42,2.42,0,0,0-.4-1.45,2.48,2.48,0,0,0-1-.83,4.7,4.7,0,0,0-1.42-.37c-.53-.05-1-.08-1.56-.08h-2.12Z"/><path class="cls-31" d="M274.91,126.23a20.91,20.91,0,0,0-9.28,2.17,20.89,20.89,0,0,0-37.1.32,20.89,20.89,0,1,0-8.19,40.95,20.89,20.89,0,0,0,31.4,3.83,20.82,20.82,0,0,0,20.6-5.65,21.76,21.76,0,0,0,2.57.16,20.89,20.89,0,0,0,0-41.78Z"/><text class="cls-12" transform="translate(226.44 155.94)">H<tspan class="cls-32" x="14.82" y="0">T</tspan><tspan x="26.99" y="0">TP</tspan></text><line class="cls-1" x1="150.84" y1="281.24" x2="350.7" y2="280.28"/><polygon class="cls-2" points="153.07 288.71 140.08 281.3 153 273.75 153.07 288.71"/><polygon class="cls-2" points="348.55 287.77 361.46 280.23 348.48 272.81 348.55 287.77"/><line class="cls-1" x1="866.75" y1="480.25" x2="865.84" y2="576.52"/><polygon class="cls-2" points="859.25 482.36 866.85 469.48 874.21 482.5 859.25 482.36"/><polygon class="cls-2" points="858.38 574.26 865.74 587.28 873.34 574.4 858.38 574.26"/><path class="cls-31" d="M276.28,255.92a20.87,20.87,0,0,0-9.27,2.17,20.89,20.89,0,0,0-37.1.32,21.22,21.22,0,0,0-4.67-.53,20.89,20.89,0,0,0-3.52,41.48,20.88,20.88,0,0,0,31.39,3.83,20.84,20.84,0,0,0,20.61-5.65,21.59,21.59,0,0,0,2.56.16,20.89,20.89,0,1,0,0-41.78Z"/><text class="cls-12" transform="translate(227.82 285.63)">H<tspan class="cls-32" x="14.82" y="0">T</tspan><tspan x="26.99" y="0">TP</tspan></text><line class="cls-1" x1="149.46" y1="407.25" x2="349.31" y2="406.29"/><polygon class="cls-2" points="151.68 414.72 138.69 407.3 151.61 399.76 151.68 414.72"/><polygon class="cls-2" points="347.16 413.78 360.07 406.24 347.09 398.82 347.16 413.78"/><path class="cls-31" d="M274.89,381.93a20.73,20.73,0,0,0-9.27,2.17,20.89,20.89,0,0,0-37.1.32,21.22,21.22,0,0,0-4.67-.53,20.89,20.89,0,0,0-3.52,41.48,20.88,20.88,0,0,0,31.39,3.83,20.84,20.84,0,0,0,20.61-5.65,21.59,21.59,0,0,0,2.56.16,20.89,20.89,0,0,0,0-41.78Z"/><text class="cls-12" transform="translate(226.43 411.64)">H<tspan class="cls-32" x="14.82" y="0">T</tspan><tspan x="26.99" y="0">TP</tspan></text><line class="cls-1" x1="647.81" y1="190.93" x2="780.36" y2="190.93"/><polygon class="cls-2" points="650 198.41 637.05 190.93 650 183.45 650 198.41"/><polygon class="cls-2" points="778.17 198.41 791.13 190.93 778.17 183.45 778.17 198.41"/><line class="cls-1" x1="541.91" y1="250.47" x2="541.91" y2="297.19"/><polygon class="cls-2" points="534.43 252.66 541.91 239.71 549.39 252.66 534.43 252.66"/><polygon class="cls-2" points="534.43 295 541.91 307.95 549.39 295 534.43 295"/><line class="cls-1" x1="458.98" y1="250.47" x2="458.98" y2="385.16"/><polygon class="cls-2" points="451.5 252.66 458.98 239.71 466.46 252.66 451.5 252.66"/><polygon class="cls-2" points="451.5 382.97 458.98 395.92 466.46 382.97 451.5 382.97"/></svg>