<svg id="Capa_1" data-name="Capa 1" xmlns="http://www.w3.org/2000/svg" viewBox="0 0 483.18 249.58"><defs><style>.cls-1,.cls-34,.cls-4,.cls-5,.cls-6{fill:none;}.cls-1{stroke:#070000;stroke-width:3px;}.cls-1,.cls-27,.cls-3,.cls-34,.cls-4,.cls-5,.cls-6,.cls-7,.cls-8,.cls-9{stroke-miterlimit:10;}.cls-2{fill:#070000;}.cls-3{fill:#07c7b8;}.cls-3,.cls-4,.cls-5,.cls-6,.cls-7,.cls-8,.cls-9{stroke:#1d1d1b;}.cls-5{stroke-dasharray:5.96 5.96;}.cls-6{stroke-dasharray:5.88 5.88;}.cls-7{fill:#ffabe4;}.cls-8{fill:#ffd903;}.cls-9{fill:#fff;}.cls-10,.cls-12{font-size:11.17px;font-family:MyriadPro-Regular, Myriad Pro;}.cls-10,.cls-13{letter-spacing:-0.01em;}.cls-11{letter-spacing:0em;}.cls-14{letter-spacing:-0.04em;}.cls-15{letter-spacing:-0.03em;}.cls-16{letter-spacing:0.01em;}.cls-17{letter-spacing:0.02em;}.cls-18{letter-spacing:-0.04em;}.cls-19{letter-spacing:-0.03em;}.cls-20{letter-spacing:-0.01em;}.cls-21{letter-spacing:-0.01em;}.cls-22{letter-spacing:0em;}.cls-23{letter-spacing:0em;}.cls-24{letter-spacing:0em;}.cls-25{letter-spacing:-0.01em;}.cls-26{letter-spacing:-0.01em;}.cls-27{fill:#cecece;stroke:#000;}.cls-28{letter-spacing:0.04em;}.cls-29,.cls-32{font-size:10.32px;}.cls-29{font-family:Helvetica-Oblique, Helvetica;font-style:oblique;}.cls-30{letter-spacing:-0.02em;}.cls-31{letter-spacing:-0.04em;}.cls-32{font-family:Helvetica-Bold, Helvetica;font-weight:700;}.cls-33{letter-spacing:-0.05em;}.cls-34{stroke:#4c4b4b;}.cls-35{fill:#4c4b4b;}</style></defs><title>MVC</title><line class="cls-1" x1="71.55" y1="59.62" x2="158.78" y2="59.2"/><polygon class="cls-2" points="73.77 67.09 60.78 59.67 73.7 52.13 73.77 67.09"/><polygon class="cls-2" points="156.63 66.69 169.54 59.15 156.55 51.73 156.63 66.69"/><rect class="cls-3" x="169.54" y="35.03" width="178.64" height="197.41"/><polyline class="cls-4" points="482.68 246.08 482.68 249.08 479.68 249.08"/><line class="cls-5" x1="473.72" y1="249.08" x2="154.61" y2="249.08"/><polyline class="cls-4" points="151.62 249.08 148.62 249.08 148.62 246.08"/><line class="cls-6" x1="148.62" y1="240.21" x2="148.62" y2="19.86"/><polyline class="cls-4" points="148.62 16.92 148.62 13.92 151.62 13.92"/><line class="cls-5" x1="157.59" y1="13.92" x2="476.7" y2="13.92"/><polyline class="cls-4" points="479.68 13.92 482.68 13.92 482.68 16.92"/><line class="cls-6" x1="482.68" y1="22.8" x2="482.68" y2="243.14"/><rect class="cls-7" x="361.13" y="35.03" width="108.75" height="197.41"/><rect class="cls-8" x="381.3" y="53.22" width="72.08" height="161.85"/><rect class="cls-9" x="1.38" y="41.32" width="59.4" height="33.25"/><rect class="cls-9" x="207.51" y="136.67" width="98.09" height="57.91"/><rect class="cls-9" x="0.5" y="106.85" width="59.4" height="29.63"/><text class="cls-10" transform="translate(392.68 29.79)">C<tspan class="cls-11" x="6.4" y="0">apa Negocio</tspan></text><path d="M412.34,143.17l.12-1.25h0l-.48,1.09-2.18,3.46h-.34L407.13,143l-.45-1.06h-.06l.18,1.23v5.05h-1.05v-7.82h.84l2.64,4,.42.85h0l.39-.87,2.51-4h.89v7.82h-1.12Z" transform="translate(-8.99 -10.92)"/><path d="M415.1,144.3a5.61,5.61,0,0,1,.24-1.71,3.57,3.57,0,0,1,.69-1.28,3,3,0,0,1,1.11-.79,4.21,4.21,0,0,1,3,0,3,3,0,0,1,1.11.83,3.61,3.61,0,0,1,.66,1.28,6.29,6.29,0,0,1,0,3.37,3.63,3.63,0,0,1-.7,1.27,3,3,0,0,1-1.11.79,3.69,3.69,0,0,1-1.48.28,3.74,3.74,0,0,1-1.56-.3,3,3,0,0,1-1.09-.83,3.47,3.47,0,0,1-.65-1.27A5.75,5.75,0,0,1,415.1,144.3Zm1.18,0a5,5,0,0,0,.14,1.19,3.18,3.18,0,0,0,.43,1,2.1,2.1,0,0,0,.72.67,2.2,2.2,0,0,0,1.05.24,2.11,2.11,0,0,0,1.71-.74,3.55,3.55,0,0,0,.63-2.33,4.47,4.47,0,0,0-.14-1.17,3,3,0,0,0-.42-1,2.13,2.13,0,0,0-.73-.67,2,2,0,0,0-1.05-.25,2.12,2.12,0,0,0-1.71.75A3.59,3.59,0,0,0,416.28,144.3Z" transform="translate(-8.99 -10.92)"/><path d="M423.79,140.39l.52,0,.61,0h1.19a4.77,4.77,0,0,1,1.78.3,3.36,3.36,0,0,1,1.26.82,3.49,3.49,0,0,1,.74,1.25,5,5,0,0,1,.24,1.59,4.81,4.81,0,0,1-.23,1.51,3.42,3.42,0,0,1-.73,1.3,3.55,3.55,0,0,1-1.29.92,4.71,4.71,0,0,1-1.9.34h-.51l-.65,0-.62,0a2.64,2.64,0,0,1-.41,0Zm2.36.88h-.34l-.36,0-.32,0-.22,0v6H426a3.36,3.36,0,0,0,1.4-.26,2.49,2.49,0,0,0,.91-.7,2.54,2.54,0,0,0,.48-1,4.81,4.81,0,0,0,.14-1.14,4.1,4.1,0,0,0-.13-1,2.84,2.84,0,0,0-.46-1,2.75,2.75,0,0,0-.86-.71A3,3,0,0,0,426.15,141.27Z" transform="translate(-8.99 -10.92)"/><path d="M431.78,140.39h4.72v1h-3.61v2.36h3.3v1h-3.3v2.51h3.67v1h-4.78Z" transform="translate(-8.99 -10.92)"/><path d="M443.43,148.21h-5.12v-7.82h1.12v6.84h4Z" transform="translate(-8.99 -10.92)"/><path d="M443.55,144.3a5.61,5.61,0,0,1,.24-1.71,3.57,3.57,0,0,1,.69-1.28,3,3,0,0,1,1.11-.79,4.21,4.21,0,0,1,3,0,3,3,0,0,1,1.11.83,3.61,3.61,0,0,1,.66,1.28,6.1,6.1,0,0,1,.22,1.65,5.72,5.72,0,0,1-.24,1.72,3.63,3.63,0,0,1-.7,1.27,3,3,0,0,1-1.11.79,3.69,3.69,0,0,1-1.48.28,3.74,3.74,0,0,1-1.56-.3,3,3,0,0,1-1.09-.83,3.47,3.47,0,0,1-.65-1.27A5.75,5.75,0,0,1,443.55,144.3Zm1.18,0a5,5,0,0,0,.14,1.19,3.18,3.18,0,0,0,.43,1,2.1,2.1,0,0,0,.72.67,2.2,2.2,0,0,0,1.05.24,2.11,2.11,0,0,0,1.71-.74,3.55,3.55,0,0,0,.63-2.33,4.47,4.47,0,0,0-.14-1.17,3,3,0,0,0-.42-1,2.13,2.13,0,0,0-.73-.67,2,2,0,0,0-1.05-.25,2.12,2.12,0,0,0-1.71.75A3.59,3.59,0,0,0,444.73,144.3Z" transform="translate(-8.99 -10.92)"/><text class="cls-12" transform="translate(233.33 29.79)"><tspan class="cls-13">C</tspan><tspan class="cls-11" x="6.4" y="0">apa</tspan><tspan class="cls-14" x="23.52" y="0"> </tspan><tspan class="cls-15" x="25.49" y="0">W</tspan><tspan x="34.57" y="0">eb </tspan></text><text class="cls-12" transform="translate(304.62 9.35)"><tspan class="cls-16">S</tspan><tspan x="5.57" y="0">e</tspan><tspan class="cls-17" x="11.17" y="0">r</tspan><tspan class="cls-11" x="15.1" y="0">vidor</tspan><tspan class="cls-18" x="39.17" y="0"> </tspan><tspan class="cls-19" x="41.14" y="0">W</tspan><tspan x="50.22" y="0">eb</tspan></text><path d="M252.9,157.52l.29,1.21h0l.3-1.24,2-5.18h1.12l-3.24,7.93h-.56l-3.29-7.93h1.23Z" transform="translate(-8.99 -10.92)"/><path d="M258.28,153.05h-.9v-.74h2.91v.74h-.9v6.34h.9v.74h-2.91v-.74h.9Z" transform="translate(-8.99 -10.92)"/><path d="M265.9,158.06a.93.93,0,0,0-.31-.72,2.89,2.89,0,0,0-.76-.46,10.09,10.09,0,0,0-1-.36,5.83,5.83,0,0,1-1-.44,2.32,2.32,0,0,1-.76-.7,2.08,2.08,0,0,1,.4-2.63,3,3,0,0,1,2-.58,7.24,7.24,0,0,1,1.37.11,3.57,3.57,0,0,1,1,.29l-.35.94a3.57,3.57,0,0,0-.84-.25,6.62,6.62,0,0,0-1.23-.11,1.78,1.78,0,0,0-1.14.32,1,1,0,0,0-.38.74.87.87,0,0,0,.31.7,2.9,2.9,0,0,0,.76.47,10,10,0,0,0,1,.39,5.91,5.91,0,0,1,1,.47,2.66,2.66,0,0,1,.76.69,1.71,1.71,0,0,1,.3,1,2.1,2.1,0,0,1-.2.95,2,2,0,0,1-.58.73,2.57,2.57,0,0,1-.92.46,4.06,4.06,0,0,1-1.21.17,7.53,7.53,0,0,1-1.55-.14,5.55,5.55,0,0,1-1-.3l.37-1a5.23,5.23,0,0,0,.85.28,5.28,5.28,0,0,0,1.24.14,3.41,3.41,0,0,0,.73-.07,1.89,1.89,0,0,0,.58-.22,1.22,1.22,0,0,0,.4-.38A1.11,1.11,0,0,0,265.9,158.06Z" transform="translate(-8.99 -10.92)"/><path d="M274.15,153.29h-2.64v6.84H270.4v-6.84h-2.64v-1h6.39Z" transform="translate(-8.99 -10.92)"/><path d="M278.7,158.06h-3.06l-.82,2.07H273.7l3.22-7.93h.58l3.23,7.93h-1.19Zm-2.73-.91h2.41l-.89-2.22-.3-1.2h0l-.3,1.22Z" transform="translate(-8.99 -10.92)"/><rect class="cls-9" x="206.95" y="65.71" width="98.66" height="37.24"/><path d="M228,88.88a2.29,2.29,0,0,1-.94.37,6.61,6.61,0,0,1-1.2.11,4.25,4.25,0,0,1-1.43-.24,3.27,3.27,0,0,1-1.19-.74,3.51,3.51,0,0,1-.81-1.26,4.78,4.78,0,0,1-.31-1.82,4.68,4.68,0,0,1,.34-1.86,3.39,3.39,0,0,1,2.08-2,4.12,4.12,0,0,1,1.33-.22,6.64,6.64,0,0,1,1.2.08,3.58,3.58,0,0,1,.8.2l-.25,1a4.09,4.09,0,0,0-1.66-.26,2.92,2.92,0,0,0-1,.16,2.3,2.3,0,0,0-.85.53,2.58,2.58,0,0,0-.6,1,4,4,0,0,0-.22,1.43,3.93,3.93,0,0,0,.21,1.34,2.73,2.73,0,0,0,.59,1,2.5,2.5,0,0,0,.88.58,3.08,3.08,0,0,0,1.11.19,3.79,3.79,0,0,0,1-.1,2.55,2.55,0,0,0,.68-.25Z" transform="translate(-8.99 -10.92)"/><path d="M228.84,85.3a5.61,5.61,0,0,1,.24-1.71,3.59,3.59,0,0,1,.7-1.28,3,3,0,0,1,1.1-.79,4.24,4.24,0,0,1,3,0,3.18,3.18,0,0,1,1.11.83,3.44,3.44,0,0,1,.65,1.28,6.29,6.29,0,0,1,0,3.37,3.48,3.48,0,0,1-.7,1.27,2.86,2.86,0,0,1-1.11.79,3.65,3.65,0,0,1-1.48.28,3.73,3.73,0,0,1-1.55-.3,2.91,2.91,0,0,1-1.09-.83,3.65,3.65,0,0,1-.66-1.27A6.12,6.12,0,0,1,228.84,85.3Zm1.19,0a5,5,0,0,0,.14,1.19,2.94,2.94,0,0,0,.42,1,2,2,0,0,0,.73.67,2.37,2.37,0,0,0,2.76-.5,3.55,3.55,0,0,0,.63-2.33,4.93,4.93,0,0,0-.14-1.17,3,3,0,0,0-.43-1,2.24,2.24,0,0,0-3.48-.17A3.59,3.59,0,0,0,230,85.3Z" transform="translate(-8.99 -10.92)"/><path d="M239.17,84.24l-.67-1.09h-.05l.13,1.09v5h-1.05V81.28h.63l4,5.07.63,1h.06l-.13-1v-5h1v7.93h-.63Z" transform="translate(-8.99 -10.92)"/><path d="M251.35,82.38h-2.63v6.83H247.6V82.38H245v-1h6.39Z" transform="translate(-8.99 -10.92)"/><path d="M252.56,81.47l.52-.08.57,0,.58,0h.55a5.49,5.49,0,0,1,1.08.11,2.91,2.91,0,0,1,.92.37,1.9,1.9,0,0,1,.87,1.69,2.52,2.52,0,0,1-.14.85,2.08,2.08,0,0,1-.41.67,2.19,2.19,0,0,1-.6.49,2.85,2.85,0,0,1-.77.29l.58.39,2.1,3.06h-1.28l-2.33-3.29-1.12-.16v3.45h-1.12Zm2.25.8h-.31l-.32,0-.29,0-.21,0v2.71h.91a2.83,2.83,0,0,0,.74-.09,1.63,1.63,0,0,0,.6-.26,1.14,1.14,0,0,0,.39-.45,1.4,1.4,0,0,0,.15-.68,1.15,1.15,0,0,0-.43-.95A1.9,1.9,0,0,0,254.81,82.27Z" transform="translate(-8.99 -10.92)"/><path d="M259.12,85.3a5.61,5.61,0,0,1,.24-1.71,3.57,3.57,0,0,1,.69-1.28,3,3,0,0,1,1.1-.79,4.24,4.24,0,0,1,3,0,3.18,3.18,0,0,1,1.11.83,3.61,3.61,0,0,1,.66,1.28,6.11,6.11,0,0,1,.21,1.65,5.72,5.72,0,0,1-.24,1.72,3.48,3.48,0,0,1-.7,1.27,2.86,2.86,0,0,1-1.11.79,3.65,3.65,0,0,1-1.48.28,3.73,3.73,0,0,1-1.55-.3,2.91,2.91,0,0,1-1.09-.83,3.65,3.65,0,0,1-.66-1.27A6.13,6.13,0,0,1,259.12,85.3Zm1.18,0a5,5,0,0,0,.14,1.19,2.94,2.94,0,0,0,.42,1,2,2,0,0,0,.73.67,2.37,2.37,0,0,0,2.76-.5A3.55,3.55,0,0,0,265,85.3a4.93,4.93,0,0,0-.14-1.17,3,3,0,0,0-.42-1,2.23,2.23,0,0,0-.73-.67,2.33,2.33,0,0,0-2.76.5A3.59,3.59,0,0,0,260.3,85.3Z" transform="translate(-8.99 -10.92)"/><path d="M272.92,89.21h-5.11V81.39h1.11v6.84h4Z" transform="translate(-8.99 -10.92)"/><path d="M277.39,87.15h-3.07l-.82,2.06h-1.11l3.21-7.93h.58l3.23,7.93h-1.18Zm-2.74-.92h2.42l-.9-2.22-.3-1.2h0l-.3,1.22Z" transform="translate(-8.99 -10.92)"/><path d="M280.49,81.39l.52,0,.62,0h1.19a4.81,4.81,0,0,1,1.78.3,3.44,3.44,0,0,1,1.25.82,3.35,3.35,0,0,1,.74,1.25,4.74,4.74,0,0,1,.25,1.59,5.12,5.12,0,0,1-.23,1.51,3.55,3.55,0,0,1-.73,1.3,3.73,3.73,0,0,1-1.29.92,4.76,4.76,0,0,1-1.91.34h-.5l-.66,0-.62,0a2.79,2.79,0,0,1-.41,0Zm2.36.88h-.33l-.36,0-.33,0-.22,0v6h1.12a3.4,3.4,0,0,0,1.4-.26,2.49,2.49,0,0,0,.91-.7,2.85,2.85,0,0,0,.48-1,4.81,4.81,0,0,0,.14-1.14,4.12,4.12,0,0,0-.14-1,2.67,2.67,0,0,0-.46-1,2.54,2.54,0,0,0-.86-.71A3,3,0,0,0,282.85,82.27Z" transform="translate(-8.99 -10.92)"/><path d="M288.14,85.3a5.61,5.61,0,0,1,.24-1.71,3.57,3.57,0,0,1,.69-1.28,3,3,0,0,1,1.1-.79,4.24,4.24,0,0,1,3,0,3.18,3.18,0,0,1,1.11.83,3.61,3.61,0,0,1,.66,1.28,6.11,6.11,0,0,1,.21,1.65,5.72,5.72,0,0,1-.24,1.72,3.48,3.48,0,0,1-.7,1.27,2.86,2.86,0,0,1-1.11.79,3.65,3.65,0,0,1-1.48.28,3.73,3.73,0,0,1-1.55-.3,2.91,2.91,0,0,1-1.09-.83,3.65,3.65,0,0,1-.66-1.27A6.13,6.13,0,0,1,288.14,85.3Zm1.18,0a5,5,0,0,0,.14,1.19,2.94,2.94,0,0,0,.42,1,2,2,0,0,0,.73.67,2.37,2.37,0,0,0,2.76-.5A3.55,3.55,0,0,0,294,85.3a4.93,4.93,0,0,0-.14-1.17,3,3,0,0,0-.43-1,2.2,2.2,0,0,0-.72-.67A2.33,2.33,0,0,0,290,83,3.59,3.59,0,0,0,289.32,85.3Z" transform="translate(-8.99 -10.92)"/><path d="M296.83,81.47l.51-.08.58,0,.58,0h.55a5.49,5.49,0,0,1,1.08.11,2.85,2.85,0,0,1,.91.37,2,2,0,0,1,.64.67,2,2,0,0,1,.24,1,2.3,2.3,0,0,1-.15.85,2.06,2.06,0,0,1-.4.67,2.09,2.09,0,0,1-.61.49,2.78,2.78,0,0,1-.76.29l.58.39,2.1,3.06h-1.29l-2.32-3.29-1.13-.16v3.45h-1.11Zm2.25.8h-.32l-.32,0-.29,0-.21,0v2.71h.92a2.89,2.89,0,0,0,.74-.09,1.52,1.52,0,0,0,.59-.26,1.17,1.17,0,0,0,.4-.45,1.4,1.4,0,0,0,.14-.68,1.17,1.17,0,0,0-.42-.95A1.9,1.9,0,0,0,299.08,82.27Z" transform="translate(-8.99 -10.92)"/><text class="cls-12" transform="translate(5.31 61.8)">N<tspan class="cls-20" x="7.35" y="0">a</tspan><tspan class="cls-21" x="12.64" y="0">v</tspan><tspan x="17.91" y="0">egador</tspan></text><text class="cls-12" transform="translate(5.39 118.87)"><tspan class="cls-22">A</tspan><tspan x="6.8" y="0">plicación</tspan><tspan x="2.65" y="13.4">Esc</tspan><tspan class="cls-23" x="17.58" y="13.4">r</tspan><tspan class="cls-24" x="21.27" y="13.4">i</tspan><tspan class="cls-25" x="23.89" y="13.4">t</tspan><tspan x="27.52" y="13.4">o</tspan><tspan class="cls-23" x="33.65" y="13.4">r</tspan><tspan x="37.35" y="13.4">io</tspan></text><rect class="cls-9" x="0.94" y="168.75" width="59.4" height="29.63"/><text class="cls-12" transform="translate(4.35 187.07)">Dispositi<tspan class="cls-26" x="40.31" y="0">v</tspan><tspan x="45.57" y="0">o</tspan></text><path class="cls-27" d="M136.69,58.12a10.24,10.24,0,0,0-4.56,1.07,10.26,10.26,0,0,0-18.23.16,10.11,10.11,0,0,0-2.29-.26,10.26,10.26,0,0,0-1.73,20.38,10.28,10.28,0,0,0,15.43,1.88,10.25,10.25,0,0,0,10.12-2.78,10.39,10.39,0,0,0,1.26.08,10.27,10.27,0,0,0,0-20.53Z" transform="translate(-8.99 -10.92)"/><text class="cls-12" transform="translate(103.88 61.8)">H<tspan class="cls-28" x="7.28" y="0">T</tspan><tspan x="13.26" y="0">TP</tspan></text><line class="cls-1" x1="72.22" y1="123.33" x2="159.45" y2="122.91"/><polygon class="cls-2" points="74.45 130.8 61.46 123.38 74.37 115.84 74.45 130.8"/><polygon class="cls-2" points="157.3 130.4 170.22 122.86 157.23 115.44 157.3 130.4"/><path class="cls-27" d="M137.36,121.84a10.22,10.22,0,0,0-4.55,1.06,10.27,10.27,0,0,0-18.23.16,10.26,10.26,0,1,0-4,20.12A10.25,10.25,0,0,0,126,145.06a10.25,10.25,0,0,0,10.12-2.78,10.66,10.66,0,0,0,1.26.08,10.26,10.26,0,1,0,0-20.52Z" transform="translate(-8.99 -10.92)"/><text class="cls-12" transform="translate(104.56 125.51)">H<tspan class="cls-28" x="7.28" y="0">T</tspan><tspan x="13.26" y="0">TP</tspan></text><line class="cls-1" x1="71.54" y1="185.24" x2="158.77" y2="184.82"/><polygon class="cls-2" points="73.76 192.71 60.77 185.29 73.69 177.75 73.76 192.71"/><polygon class="cls-2" points="156.62 192.31 169.53 184.76 156.55 177.35 156.62 192.31"/><path class="cls-27" d="M136.68,183.74a10.27,10.27,0,0,0-4.56,1.07,10.26,10.26,0,0,0-18.22.15,10.88,10.88,0,0,0-2.3-.26,10.26,10.26,0,0,0-1.72,20.38A10.25,10.25,0,0,0,125.3,207a10.26,10.26,0,0,0,10.12-2.77,10.39,10.39,0,0,0,1.26.08,10.27,10.27,0,0,0,0-20.53Z" transform="translate(-8.99 -10.92)"/><text class="cls-12" transform="translate(103.88 187.42)">H<tspan class="cls-28" x="7.28" y="0">T</tspan><tspan x="13.26" y="0">TP</tspan></text><line class="cls-1" x1="316.37" y1="78.99" x2="370.53" y2="78.99"/><polygon class="cls-2" points="318.56 86.47 305.6 78.99 318.56 71.51 318.56 86.47"/><polygon class="cls-2" points="368.35 86.47 381.3 78.99 368.35 71.51 368.35 86.47"/><line class="cls-1" x1="258.86" y1="113.72" x2="258.86" y2="125.72"/><polygon class="cls-2" points="251.38 115.91 258.86 102.95 266.34 115.91 251.38 115.91"/><polygon class="cls-2" points="251.38 123.53 258.86 136.48 266.34 123.53 251.38 123.53"/><path d="M408.05,255.69a2.3,2.3,0,0,1-.85,1.37,2.53,2.53,0,0,1-1.57.49c-.15,0-.34,0-.58,0a4.88,4.88,0,0,1-.58-.1l.19-.81h0c.12,0,.26.09.43.13a1.9,1.9,0,0,0,.54.07,1.94,1.94,0,0,0,.69-.1,1.05,1.05,0,0,0,.43-.29,1.54,1.54,0,0,0,.26-.47,4.75,4.75,0,0,0,.16-.6l.92-4h-1.48l.16-.69h2.39Z" transform="translate(-8.99 -10.92)"/><path d="M412.55,256.91l-.33.2a3,3,0,0,1-.43.23,3.52,3.52,0,0,1-.52.18,2.62,2.62,0,0,1-.66.07,1.41,1.41,0,0,1-1-.35,1.24,1.24,0,0,1-.38-.93,1.85,1.85,0,0,1,.27-1,2,2,0,0,1,.79-.68,4.42,4.42,0,0,1,1.24-.38,15.19,15.19,0,0,1,1.66-.14c0-.08,0-.16.05-.22a1.23,1.23,0,0,0,0-.19.64.64,0,0,0-.09-.36.67.67,0,0,0-.25-.22,1.24,1.24,0,0,0-.37-.11,3.24,3.24,0,0,0-1.35.1,6.91,6.91,0,0,0-.81.24h0l.16-.85c.18,0,.43-.1.77-.16a5.33,5.33,0,0,1,1-.08,2.71,2.71,0,0,1,1.42.29,1,1,0,0,1,.47.94,1.18,1.18,0,0,1,0,.26,1.72,1.72,0,0,1-.05.26l-.79,3.46h-.85Zm.5-2.15c-.47,0-.88.06-1.25.11a4.18,4.18,0,0,0-.9.23,1.34,1.34,0,0,0-.56.41,1,1,0,0,0-.19.64.58.58,0,0,0,.22.5,1.11,1.11,0,0,0,.7.17,2.19,2.19,0,0,0,.84-.18,4.1,4.1,0,0,0,.8-.44Z" transform="translate(-8.99 -10.92)"/><path d="M420.44,252.36l-3.23,5.09h-.86l-.87-5.09h.87l.65,4.07,2.5-4.07Z" transform="translate(-8.99 -10.92)"/><path d="M423.67,256.91l-.33.2a3,3,0,0,1-.43.23,3.52,3.52,0,0,1-.52.18,2.62,2.62,0,0,1-.66.07,1.41,1.41,0,0,1-1-.35,1.24,1.24,0,0,1-.38-.93,1.85,1.85,0,0,1,.27-1,2,2,0,0,1,.79-.68,4.42,4.42,0,0,1,1.24-.38,15.19,15.19,0,0,1,1.66-.14c0-.08,0-.16.05-.22a1.23,1.23,0,0,0,0-.19.64.64,0,0,0-.09-.36.67.67,0,0,0-.25-.22,1.24,1.24,0,0,0-.37-.11,3.24,3.24,0,0,0-1.35.1,6.91,6.91,0,0,0-.81.24h0l.17-.85a7.76,7.76,0,0,1,.76-.16,5.33,5.33,0,0,1,1-.08,2.71,2.71,0,0,1,1.42.29,1,1,0,0,1,.47.94,1.18,1.18,0,0,1,0,.26c0,.1,0,.18,0,.26l-.8,3.46h-.85Zm.5-2.15c-.47,0-.88.06-1.25.11a4.18,4.18,0,0,0-.9.23,1.34,1.34,0,0,0-.56.41,1.08,1.08,0,0,0-.19.64.61.61,0,0,0,.22.5,1.11,1.11,0,0,0,.7.17,2.19,2.19,0,0,0,.84-.18,4.51,4.51,0,0,0,.81-.44Z" transform="translate(-8.99 -10.92)"/><path d="M430.72,256.9a2.83,2.83,0,0,1-.92.42,4.55,4.55,0,0,1-1.19.13h-2.49l1.56-6.79h1.95a9.51,9.51,0,0,1,1.1.05,1.69,1.69,0,0,1,.66.24,1,1,0,0,1,.38.39,1.18,1.18,0,0,1,.12.53,1.72,1.72,0,0,1-.33,1,2.19,2.19,0,0,1-.92.7v0a1.49,1.49,0,0,1,.84.46,1.32,1.32,0,0,1,.29.87,2.26,2.26,0,0,1-.29,1.1A2.43,2.43,0,0,1,430.72,256.9Zm.09-1.87a.71.71,0,0,0-.39-.71,1.37,1.37,0,0,0-.47-.15c-.19,0-.45,0-.79,0h-1.37l-.59,2.57h1.24a6.54,6.54,0,0,0,1-.07,1.79,1.79,0,0,0,.65-.23,1.49,1.49,0,0,0,.55-.59A1.79,1.79,0,0,0,430.81,255Zm.1-2.91a.71.71,0,0,0-.06-.31.52.52,0,0,0-.18-.21,1.14,1.14,0,0,0-.48-.16,7.39,7.39,0,0,0-.74,0h-1l-.46,2h1.18a3.37,3.37,0,0,0,.68-.06,1.69,1.69,0,0,0,.51-.18,1.09,1.09,0,0,0,.43-.47A1.29,1.29,0,0,0,430.91,252.12Z" transform="translate(-8.99 -10.92)"/><path d="M434.86,257.57a2.53,2.53,0,0,1-1.66-.5,1.77,1.77,0,0,1-.6-1.45,3.47,3.47,0,0,1,.88-2.4,2.8,2.8,0,0,1,2.19-1,1.86,1.86,0,0,1,1.32.43,1.55,1.55,0,0,1,.46,1.21,3,3,0,0,1,0,.43c0,.2-.07.43-.12.69h-3.75a1.17,1.17,0,0,0,0,.26,1.93,1.93,0,0,0,0,.24,1.34,1.34,0,0,0,.39,1,1.58,1.58,0,0,0,1.11.36,3,3,0,0,0,1-.19,3.69,3.69,0,0,0,.89-.45h0l-.18.93-.41.15a4.65,4.65,0,0,1-.47.14l-.5.1A2.77,2.77,0,0,1,434.86,257.57Zm1.71-3.22c0-.09,0-.16,0-.22s0-.13,0-.2a1,1,0,0,0-.27-.76,1.12,1.12,0,0,0-.85-.28,1.81,1.81,0,0,0-1.15.4,2,2,0,0,0-.68,1.06Z" transform="translate(-8.99 -10.92)"/><path d="M441.24,256.91l-.34.2a2.55,2.55,0,0,1-.43.23,3.16,3.16,0,0,1-.52.18,2.62,2.62,0,0,1-.66.07,1.4,1.4,0,0,1-1-.35,1.24,1.24,0,0,1-.38-.93,1.85,1.85,0,0,1,.27-1,1.91,1.91,0,0,1,.79-.68,4.32,4.32,0,0,1,1.24-.38,15,15,0,0,1,1.66-.14c0-.08,0-.16,0-.22a1.23,1.23,0,0,0,0-.19.64.64,0,0,0-.09-.36.57.57,0,0,0-.24-.22,1.34,1.34,0,0,0-.37-.11,3.38,3.38,0,0,0-.47,0,3.47,3.47,0,0,0-.89.13,6.15,6.15,0,0,0-.8.24h0l.17-.85c.17,0,.43-.1.76-.16a5.48,5.48,0,0,1,1-.08,2.69,2.69,0,0,1,1.42.29,1,1,0,0,1,.48.94,2.46,2.46,0,0,1,0,.26c0,.1,0,.18-.05.26l-.8,3.46h-.85Zm.5-2.15c-.47,0-.89.06-1.25.11a4.18,4.18,0,0,0-.9.23,1.28,1.28,0,0,0-.56.41,1,1,0,0,0-.19.64.58.58,0,0,0,.22.5,1.1,1.1,0,0,0,.69.17,2.2,2.2,0,0,0,.85-.18,4.78,4.78,0,0,0,.8-.44Z" transform="translate(-8.99 -10.92)"/><path d="M448.71,253.52a1.85,1.85,0,0,1,0,.3,2.4,2.4,0,0,1-.05.32l-.77,3.31H447l.67-2.9c0-.16.06-.3.08-.42a2.19,2.19,0,0,0,0-.36.8.8,0,0,0-.19-.58,1,1,0,0,0-.68-.19,1.85,1.85,0,0,0-.77.19,5.43,5.43,0,0,0-.81.46l-.88,3.8h-.86l1.18-5.09h.85l-.13.56a5.52,5.52,0,0,1,.92-.52,2.2,2.2,0,0,1,.88-.18,1.5,1.5,0,0,1,1,.33A1.24,1.24,0,0,1,448.71,253.52Z" transform="translate(-8.99 -10.92)"/><path d="M451.11,257.57a3.23,3.23,0,0,1-1-.14,3.89,3.89,0,0,1-.75-.3l.19-.92h.05l.25.19a1.75,1.75,0,0,0,.39.22,2.52,2.52,0,0,0,.49.18,2.21,2.21,0,0,0,.59.08,1.78,1.78,0,0,0,1-.24.77.77,0,0,0,.37-.69.42.42,0,0,0-.19-.38,1.78,1.78,0,0,0-.54-.21l-.42-.09-.51-.12a1.61,1.61,0,0,1-.78-.43,1,1,0,0,1-.26-.7,1.34,1.34,0,0,1,.16-.66,1.63,1.63,0,0,1,.46-.57,2.09,2.09,0,0,1,.74-.4,3.13,3.13,0,0,1,1-.15,3.49,3.49,0,0,1,.91.11,3.1,3.1,0,0,1,.74.28l-.18.88h-.05a1.26,1.26,0,0,0-.22-.16,2.43,2.43,0,0,0-.37-.21,2.52,2.52,0,0,0-1-.21,1.61,1.61,0,0,0-.92.24.75.75,0,0,0-.36.65.48.48,0,0,0,.18.38,1.25,1.25,0,0,0,.53.24l.46.1.47.11a1.52,1.52,0,0,1,.8.41.93.93,0,0,1,.27.69,1.53,1.53,0,0,1-.17.69,1.66,1.66,0,0,1-.48.58,2.63,2.63,0,0,1-.78.41A3.74,3.74,0,0,1,451.11,257.57Z" transform="translate(-8.99 -10.92)"/><text class="cls-29" transform="translate(82.22 241.57)">JS<tspan class="cls-30" x="12.04" y="0">P</tspan><tspan x="18.74" y="0" xml:space="preserve"> + JST</tspan><tspan class="cls-31" x="48.84" y="0">L</tspan></text><text class="cls-32" transform="translate(213.22 95.57)">PersonaController</text><text class="cls-32" transform="translate(229.27 171.57)">persona.jsp<tspan x="8.31" y="12.38">erro</tspan><tspan class="cls-33" x="28.38" y="12.38">r</tspan><tspan x="31.83" y="12.38">.jsp</tspan></text><text class="cls-32" transform="translate(397.15 157.57)">persona</text><text class="cls-29" transform="translate(104.22 20.57)">Servlet</text><line class="cls-34" x1="137.51" y1="25.58" x2="208.74" y2="80.88"/><path class="cls-35" d="M222.5,95.5A30.08,30.08,0,0,0,212.83,94l4.28-2.71,1.55-4.81A30.12,30.12,0,0,0,222.5,95.5Z" transform="translate(-8.99 -10.92)"/><line class="cls-34" x1="127.51" y1="228.58" x2="218.15" y2="181.37"/><path class="cls-35" d="M232.5,189.5a30.12,30.12,0,0,0-5.38,8.17l-.68-5-3.72-3.42A30.17,30.17,0,0,0,232.5,189.5Z" transform="translate(-8.99 -10.92)"/><line class="cls-34" x1="406.51" y1="237.58" x2="407.42" y2="169.62"/><path class="cls-35" d="M416.5,174.5a30.51,30.51,0,0,0,4.64,8.61l-4.73-1.78L411.63,183A30.21,30.21,0,0,0,416.5,174.5Z" transform="translate(-8.99 -10.92)"/></svg>