<svg id="Capa_1" data-name="Capa 1" xmlns="http://www.w3.org/2000/svg" viewBox="0 0 1024 768"><defs><style>.cls-1,.cls-4,.cls-5,.cls-6{fill:none;}.cls-1{stroke:#070000;stroke-width:3px;}.cls-1,.cls-11,.cls-3,.cls-31,.cls-4,.cls-5,.cls-6,.cls-7,.cls-8,.cls-9{stroke-miterlimit:10;}.cls-2{fill:#070000;}.cls-3{fill:#07c7b8;}.cls-3,.cls-4,.cls-5,.cls-6,.cls-7,.cls-8,.cls-9{stroke:#1d1d1b;}.cls-5{stroke-dasharray:5.96 5.96;}.cls-6{stroke-dasharray:5.98 5.98;}.cls-7{fill:#ffabe4;}.cls-8{fill:#ffd903;}.cls-11,.cls-9{fill:#fff;}.cls-10{fill:#0a71b3;}.cls-11{stroke:#040404;}.cls-12{font-size:22.74px;font-family:MyriadPro-Regular, Myriad Pro;}.cls-13{letter-spacing:-0.01em;}.cls-14{letter-spacing:-0.04em;}.cls-15{letter-spacing:-0.03em;}.cls-16{letter-spacing:0em;}.cls-17{letter-spacing:0.01em;}.cls-18{letter-spacing:0.02em;}.cls-19{letter-spacing:-0.04em;}.cls-20{letter-spacing:-0.03em;}.cls-21{letter-spacing:0em;}.cls-22{letter-spacing:-0.01em;}.cls-23{letter-spacing:-0.01em;}.cls-24{letter-spacing:-0.01em;}.cls-25{letter-spacing:0em;}.cls-26{letter-spacing:0em;}.cls-27{letter-spacing:0em;}.cls-28{letter-spacing:-0.01em;}.cls-29{letter-spacing:-0.01em;}.cls-30{letter-spacing:0em;}.cls-31{fill:#cecece;stroke:#000;}.cls-32{letter-spacing:0.04em;}.cls-33{fill:red;}</style></defs><title>persistencia</title><line class="cls-1" x1="151.47" y1="157.55" x2="351.32" y2="156.59"/><polygon class="cls-2" points="153.69 165.02 140.71 157.61 153.62 150.06 153.69 165.02"/><polygon class="cls-2" points="349.17 164.08 362.09 156.54 349.1 149.12 349.17 164.08"/><rect class="cls-3" x="362.09" y="107.46" width="363.64" height="401.84"/><polyline class="cls-4" points="999.5 540.16 999.5 543.16 996.5 543.16"/><line class="cls-5" x1="990.54" y1="543.16" x2="325.49" y2="543.16"/><polyline class="cls-4" points="322.51 543.16 319.51 543.16 319.51 540.16"/><line class="cls-6" x1="319.51" y1="534.17" x2="319.51" y2="70.47"/><polyline class="cls-4" points="319.51 67.48 319.51 64.48 322.51 64.48"/><line class="cls-5" x1="328.47" y1="64.48" x2="993.52" y2="64.48"/><polyline class="cls-4" points="996.5 64.48 999.5 64.48 999.5 67.48"/><line class="cls-6" x1="999.5" y1="73.47" x2="999.5" y2="537.17"/><rect class="cls-7" x="752.07" y="107.46" width="221.37" height="401.84"/><rect class="cls-8" x="793.12" y="144.48" width="146.72" height="329.45"/><rect class="cls-9" x="438.22" y="403.95" width="200.82" height="54.32"/><rect class="cls-9" x="19.79" y="120.26" width="120.92" height="67.68"/><rect class="cls-9" x="491.93" y="314.34" width="147.11" height="56.32"/><rect class="cls-9" x="18" y="253.63" width="120.92" height="60.32"/><path class="cls-10" d="M836.19,671.17h0a2.07,2.07,0,0,1,0-.35Z"/><path class="cls-11" d="M896.78,671.17v-.35a2.07,2.07,0,0,1,0,.35Z"/><path class="cls-10" d="M880.4,662.86a97.31,97.31,0,0,1-27.83,0c-9.73-1.49-16.38-4.49-16.38-8v15.91a2.07,2.07,0,0,0,0,.35c.63,4.78,13.94,8.6,30.27,8.6s29.63-3.82,30.26-8.6a2.07,2.07,0,0,0,0-.35V654.91C896.78,658.37,890.13,661.37,880.4,662.86Z"/><path class="cls-10" d="M880.4,644.62a97.31,97.31,0,0,1-27.83,0c-9.73-1.49-16.38-4.49-16.38-8v15.9a2.19,2.19,0,0,0,0,.36c.63,4.77,13.94,8.59,30.27,8.59s29.63-3.82,30.26-8.59a2.19,2.19,0,0,0,0-.36v-15.9C896.78,640.13,890.13,643.13,880.4,644.62Z"/><path class="cls-10" d="M880.4,625.68a97.31,97.31,0,0,1-27.83,0c-9.73-1.48-16.38-4.49-16.38-7.95v15.91a2.07,2.07,0,0,0,0,.35c.63,4.78,13.94,8.6,30.27,8.6s29.63-3.82,30.26-8.6a2.07,2.07,0,0,0,0-.35V617.73C896.78,621.19,890.13,624.2,880.4,625.68Z"/><path class="cls-10" d="M866.49,603.12c-16.73,0-30.3,4-30.3,9v2.76c0,4.94,13.57,8.95,30.3,8.95s30.29-4,30.29-8.95v-2.76C896.78,607.13,883.22,603.12,866.49,603.12Z"/><text class="cls-12" transform="translate(816.29 96.79)"><tspan class="cls-13">C</tspan><tspan x="13.03" y="0">apa Negocio</tspan></text><path d="M838,305.35l.24-2.54h-.09l-1,2.2-4.44,7.05h-.68L827.41,305l-.93-2.16h-.12l.37,2.5v10.28h-2.14V299.69h1.71l5.38,8.12.85,1.73h0l.8-1.78,5.11-8.07h1.8v15.92H838Z"/><path d="M843.62,307.65a11.36,11.36,0,0,1,.49-3.49,7.33,7.33,0,0,1,1.41-2.59,6,6,0,0,1,2.25-1.62,8.54,8.54,0,0,1,6.16.05,6.15,6.15,0,0,1,2.26,1.68,7.37,7.37,0,0,1,1.34,2.6,12.27,12.27,0,0,1,.44,3.37,11.67,11.67,0,0,1-.49,3.49,7.19,7.19,0,0,1-1.42,2.59,6.22,6.22,0,0,1-2.26,1.62,8.59,8.59,0,0,1-6.18-.05,6,6,0,0,1-2.22-1.68,7,7,0,0,1-1.33-2.61A11.77,11.77,0,0,1,843.62,307.65Zm2.41,0a9.76,9.76,0,0,0,.29,2.41,6.09,6.09,0,0,0,.86,2,4.1,4.1,0,0,0,3.6,1.85,4.32,4.32,0,0,0,3.49-1.51,7.22,7.22,0,0,0,1.29-4.74,9.72,9.72,0,0,0-.29-2.39,5.89,5.89,0,0,0-.86-2,4.12,4.12,0,0,0-3.63-1.87,4.28,4.28,0,0,0-3.46,1.53A7.23,7.23,0,0,0,846,307.65Z"/><path d="M861.31,299.69c.3,0,.66-.08,1.06-.1l1.25-.06,1.27,0H866a9.93,9.93,0,0,1,3.63.6,6.9,6.9,0,0,1,2.54,1.67,6.83,6.83,0,0,1,1.52,2.55,10.08,10.08,0,0,1,.5,3.23,10.31,10.31,0,0,1-.47,3.08,7.32,7.32,0,0,1-1.49,2.65,7.44,7.44,0,0,1-2.63,1.86,9.56,9.56,0,0,1-3.87.7c-.26,0-.61,0-1,0l-1.33,0-1.26-.06a7.18,7.18,0,0,1-.83-.08Zm4.8,1.8h-.68l-.73,0-.66.05-.46,0v12.14a2.89,2.89,0,0,0,.45,0l.69,0,.68,0h.46a6.65,6.65,0,0,0,2.85-.53,4.91,4.91,0,0,0,1.84-1.42,5.24,5.24,0,0,0,1-2,9.47,9.47,0,0,0,.29-2.33,8.15,8.15,0,0,0-.28-2.1,5.36,5.36,0,0,0-.93-1.94,5,5,0,0,0-1.75-1.44A5.9,5.9,0,0,0,866.11,301.49Z"/><path d="M877.57,299.69h9.61v2h-7.34v4.8h6.71v2h-6.71v5.12h7.46v2h-9.73Z"/><path d="M901.28,315.61H890.87V299.69h2.27v13.92h8.14Z"/><path d="M901.53,307.65a11.67,11.67,0,0,1,.49-3.49,7.33,7.33,0,0,1,1.41-2.59,6.07,6.07,0,0,1,2.25-1.62,8.54,8.54,0,0,1,6.16.05,6.07,6.07,0,0,1,2.26,1.68,7.37,7.37,0,0,1,1.34,2.6,12.27,12.27,0,0,1,.44,3.37,11.36,11.36,0,0,1-.49,3.49,7,7,0,0,1-1.42,2.59,6.14,6.14,0,0,1-2.26,1.62,8.59,8.59,0,0,1-6.18-.05,6,6,0,0,1-2.22-1.68A7.16,7.16,0,0,1,902,311,11.77,11.77,0,0,1,901.53,307.65Zm2.41,0a9.76,9.76,0,0,0,.29,2.41,6.31,6.31,0,0,0,.86,2,4.6,4.6,0,0,0,7.1.34,7.28,7.28,0,0,0,1.28-4.74,9.72,9.72,0,0,0-.28-2.39,6.1,6.1,0,0,0-.87-2,4.41,4.41,0,0,0-1.48-1.37,4.35,4.35,0,0,0-2.15-.5,4.28,4.28,0,0,0-3.46,1.53A7.23,7.23,0,0,0,903.94,307.65Z"/><text class="cls-12" transform="translate(491.93 96.79)"><tspan class="cls-13">C</tspan><tspan x="13.03" y="0">apa</tspan><tspan class="cls-14" x="47.88" y="0"> </tspan><tspan class="cls-15" x="51.89" y="0">W</tspan><tspan class="cls-16" x="70.37" y="0">eb </tspan></text><text class="cls-12" transform="translate(637.04 55.18)"><tspan class="cls-17">S</tspan><tspan x="11.35" y="0">e</tspan><tspan class="cls-18" x="22.74" y="0">r</tspan><tspan x="30.74" y="0">vidor</tspan><tspan class="cls-19" x="79.74" y="0"> </tspan><tspan class="cls-20" x="83.74" y="0">W</tspan><tspan class="cls-16" x="102.23" y="0">eb</tspan></text><text class="cls-12" transform="translate(801.35 709.24)">Base de D<tspan class="cls-21" x="92.68" y="0">a</tspan><tspan class="cls-22" x="103.54" y="0">t</tspan><tspan x="110.93" y="0">os</tspan></text><path d="M542,332.51l.59,2.48h0l.62-2.52,4.09-10.55h2.27L543,338.06h-1.14l-6.68-16.14h2.5Z"/><path d="M552.9,323.42h-1.82v-1.5H557v1.5h-1.82v12.91H557v1.5h-5.92v-1.5h1.82Z"/><path d="M568.41,333.63a1.85,1.85,0,0,0-.61-1.47,5.91,5.91,0,0,0-1.55-.94c-.62-.26-1.29-.51-2-.74a11,11,0,0,1-2-.9,4.87,4.87,0,0,1-1.55-1.41,3.81,3.81,0,0,1-.61-2.25,3.85,3.85,0,0,1,1.42-3.12,6.24,6.24,0,0,1,4.06-1.18,16.07,16.07,0,0,1,2.79.23,7.52,7.52,0,0,1,2,.59l-.7,1.91a7.2,7.2,0,0,0-1.7-.5,13,13,0,0,0-2.5-.23,3.47,3.47,0,0,0-2.32.66,1.91,1.91,0,0,0-.78,1.51,1.79,1.79,0,0,0,.62,1.41,5.71,5.71,0,0,0,1.54,1c.62.28,1.29.55,2,.81a10.22,10.22,0,0,1,2,.95,5.36,5.36,0,0,1,1.55,1.4,3.47,3.47,0,0,1,.61,2.13,4.37,4.37,0,0,1-.41,1.93,4.1,4.1,0,0,1-1.18,1.48,5.43,5.43,0,0,1-1.86.94,8.61,8.61,0,0,1-2.48.33,14.82,14.82,0,0,1-3.15-.29,8.33,8.33,0,0,1-1.94-.6l.75-2a9.46,9.46,0,0,0,1.71.58,10.55,10.55,0,0,0,2.54.29,6.94,6.94,0,0,0,1.48-.15,4.09,4.09,0,0,0,1.19-.45,2.22,2.22,0,0,0,.8-.78A2.12,2.12,0,0,0,568.41,333.63Z"/><path d="M585.21,323.92h-5.36v13.91h-2.28V323.92h-5.36v-2h13Z"/><path d="M594.48,333.63h-6.24l-1.66,4.2H584.3l6.55-16.14H592l6.57,16.14h-2.41Zm-5.56-1.87h4.91L592,327.24l-.6-2.43h0l-.61,2.47Z"/><rect class="cls-9" x="438.23" y="169.9" width="200.82" height="75.81"/><path d="M462.86,194.83a4.67,4.67,0,0,1-1.91.76,12.94,12.94,0,0,1-2.46.22,8.78,8.78,0,0,1-2.9-.49,6.84,6.84,0,0,1-2.42-1.5,7.18,7.18,0,0,1-1.66-2.57,10.06,10.06,0,0,1-.61-3.7,9.37,9.37,0,0,1,.68-3.79,7.22,7.22,0,0,1,1.77-2.56,7,7,0,0,1,2.46-1.45,8.59,8.59,0,0,1,2.7-.45,15,15,0,0,1,2.46.16,8.52,8.52,0,0,1,1.61.41l-.5,1.95a8.48,8.48,0,0,0-3.38-.52,6.06,6.06,0,0,0-2,.33A4.6,4.6,0,0,0,455,182.7a5.33,5.33,0,0,0-1.22,1.93,8.34,8.34,0,0,0-.45,2.92,7.8,7.8,0,0,0,.43,2.72,5.72,5.72,0,0,0,1.19,2,5.07,5.07,0,0,0,1.8,1.18,6.35,6.35,0,0,0,2.26.4,7.8,7.8,0,0,0,1.93-.21,5.46,5.46,0,0,0,1.39-.52Z"/><path d="M464.49,187.55a11.72,11.72,0,0,1,.49-3.49,7.42,7.42,0,0,1,1.41-2.59,6.11,6.11,0,0,1,2.26-1.61,8.47,8.47,0,0,1,6.16,0,6.22,6.22,0,0,1,2.25,1.68,7.25,7.25,0,0,1,1.34,2.61,12.2,12.2,0,0,1,.44,3.36,11.32,11.32,0,0,1-.49,3.49,7.09,7.09,0,0,1-1.42,2.6,6.11,6.11,0,0,1-2.26,1.61,7.76,7.76,0,0,1-3,.56,7.49,7.49,0,0,1-3.16-.61,6,6,0,0,1-2.23-1.68,7.19,7.19,0,0,1-1.33-2.6A11.89,11.89,0,0,1,464.49,187.55Zm2.41,0a9.85,9.85,0,0,0,.29,2.42,6.52,6.52,0,0,0,.86,2,4.26,4.26,0,0,0,1.48,1.35,4.77,4.77,0,0,0,5.62-1,7.24,7.24,0,0,0,1.28-4.74,9.72,9.72,0,0,0-.28-2.39,6.3,6.3,0,0,0-.87-2,4.35,4.35,0,0,0-1.47-1.36,4.72,4.72,0,0,0-5.62,1A7.2,7.2,0,0,0,466.9,187.55Z"/><path d="M485.5,185.39l-1.36-2.22h-.09l.27,2.22v10.12h-2.14V179.37h1.28l8.12,10.32,1.29,2.12H493l-.27-2.12V179.6h2.14v16.14h-1.27Z"/><path d="M510.31,181.6h-5.37v13.91h-2.27V181.6H497.3v-2h13Z"/><path d="M512.77,179.75c.31-.06.67-.11,1.05-.15l1.17-.12,1.19-.07,1.11,0a10.42,10.42,0,0,1,2.19.23,5.48,5.48,0,0,1,1.87.75,3.91,3.91,0,0,1,1.29,1.36,4.08,4.08,0,0,1,.49,2.08,5,5,0,0,1-.29,1.73,4.5,4.5,0,0,1-2.06,2.35,5.87,5.87,0,0,1-1.56.6l1.19.8,4.27,6.22h-2.61l-4.73-6.71-2.3-.31v7h-2.27Zm4.59,1.64h-.65l-.65,0-.59.05a2.74,2.74,0,0,0-.43.07V187h1.86a6.46,6.46,0,0,0,1.51-.17,3.6,3.6,0,0,0,1.21-.52,2.57,2.57,0,0,0,.81-.92,3.07,3.07,0,0,0,.29-1.39,2.34,2.34,0,0,0-.86-1.93A3.88,3.88,0,0,0,517.36,181.39Z"/><path d="M526.11,187.55a11.41,11.41,0,0,1,.49-3.49,7.42,7.42,0,0,1,1.41-2.59,6,6,0,0,1,2.25-1.61,8.47,8.47,0,0,1,6.16,0,6.14,6.14,0,0,1,2.25,1.68,7.27,7.27,0,0,1,1.35,2.61,12.2,12.2,0,0,1,.44,3.36A11.32,11.32,0,0,1,540,191a7.24,7.24,0,0,1-1.42,2.6,6.19,6.19,0,0,1-2.26,1.61,7.78,7.78,0,0,1-3,.56,7.55,7.55,0,0,1-3.16-.61,6.12,6.12,0,0,1-2.23-1.68,7.17,7.17,0,0,1-1.32-2.6A11.89,11.89,0,0,1,526.11,187.55Zm2.41,0a9.85,9.85,0,0,0,.29,2.42,6.07,6.07,0,0,0,.86,2,4.26,4.26,0,0,0,1.48,1.35,4.76,4.76,0,0,0,5.61-1,7.18,7.18,0,0,0,1.29-4.74,10.23,10.23,0,0,0-.28-2.39,6.3,6.3,0,0,0-.87-2,4.38,4.38,0,0,0-1.48-1.36,4.7,4.7,0,0,0-5.61,1A7.2,7.2,0,0,0,528.52,187.55Z"/><path d="M554.22,195.51H543.8V179.6h2.28v13.91h8.14Z"/><path d="M563.3,191.3h-6.24l-1.66,4.21h-2.28l6.55-16.14h1.18l6.58,16.14H565Zm-5.56-1.86h4.91l-1.83-4.52-.6-2.44h-.05l-.61,2.48Z"/><path d="M569.63,179.6c.3,0,.66-.08,1.06-.11l1.25-.05,1.27,0h1.15a10,10,0,0,1,3.63.6,7,7,0,0,1,2.54,1.67,6.83,6.83,0,0,1,1.51,2.55,9.86,9.86,0,0,1,.5,3.23,10.26,10.26,0,0,1-.46,3.08,7.24,7.24,0,0,1-1.49,2.65A7.44,7.44,0,0,1,578,195a9.55,9.55,0,0,1-3.87.71l-1,0-1.33-.05q-.68,0-1.26-.06a7.18,7.18,0,0,1-.83-.08Zm4.8,1.79h-.68l-.73,0-.66.05-.46,0v12.14l.45,0,.69,0,.68,0h.46a6.65,6.65,0,0,0,2.85-.54,4.81,4.81,0,0,0,1.84-1.42,5.39,5.39,0,0,0,1-2,9.47,9.47,0,0,0,.29-2.33,8.53,8.53,0,0,0-.28-2.09,5.49,5.49,0,0,0-.93-1.95,5.11,5.11,0,0,0-1.75-1.44A5.93,5.93,0,0,0,574.43,181.39Z"/><path d="M585.18,187.55a11.72,11.72,0,0,1,.49-3.49,7.42,7.42,0,0,1,1.41-2.59,6.16,6.16,0,0,1,2.25-1.61,8.47,8.47,0,0,1,6.16,0,6.17,6.17,0,0,1,2.26,1.68,7.41,7.41,0,0,1,1.34,2.61,12.2,12.2,0,0,1,.44,3.36A11.32,11.32,0,0,1,599,191a7.24,7.24,0,0,1-1.42,2.6,6.19,6.19,0,0,1-2.26,1.61,7.78,7.78,0,0,1-3,.56,7.55,7.55,0,0,1-3.16-.61,6,6,0,0,1-2.22-1.68,7.19,7.19,0,0,1-1.33-2.6A11.89,11.89,0,0,1,585.18,187.55Zm2.41,0a9.85,9.85,0,0,0,.29,2.42,6.28,6.28,0,0,0,.86,2,4.26,4.26,0,0,0,1.48,1.35,4.77,4.77,0,0,0,5.62-1,7.24,7.24,0,0,0,1.28-4.74,9.26,9.26,0,0,0-.29-2.39,6.07,6.07,0,0,0-.86-2,4.38,4.38,0,0,0-1.48-1.36,4.7,4.7,0,0,0-5.61,1A7.2,7.2,0,0,0,587.59,187.55Z"/><path d="M602.87,179.75c.32-.06.67-.11,1.06-.15l1.17-.12,1.18-.07,1.12,0a10.5,10.5,0,0,1,2.19.23,5.34,5.34,0,0,1,1.86.75,3.94,3.94,0,0,1,1.3,1.36,4.08,4.08,0,0,1,.49,2.08,4.8,4.8,0,0,1-.3,1.73,4.42,4.42,0,0,1-.81,1.36,4.59,4.59,0,0,1-1.24,1,5.87,5.87,0,0,1-1.56.6l1.18.8,4.28,6.22h-2.62l-4.73-6.71-2.3-.31v7h-2.27Zm4.6,1.64h-.65l-.65,0-.59.05a3.13,3.13,0,0,0-.44.07V187H607a6.46,6.46,0,0,0,1.51-.17,3.69,3.69,0,0,0,1.21-.52,2.45,2.45,0,0,0,.8-.92,2.94,2.94,0,0,0,.3-1.39,2.37,2.37,0,0,0-.86-1.93A3.88,3.88,0,0,0,607.47,181.39Z"/><text class="cls-12" transform="translate(27.79 161.94)">N<tspan class="cls-23" x="14.96" y="0">a</tspan><tspan class="cls-24" x="25.74" y="0">v</tspan><tspan class="cls-25" x="36.45" y="0">egador</tspan></text><text class="cls-12" transform="translate(27.95 278.11)"><tspan class="cls-26">A</tspan><tspan x="13.85" y="0">plicación</tspan><tspan x="5.4" y="27.28">Esc</tspan><tspan class="cls-27" x="35.78" y="27.28">r</tspan><tspan x="43.3" y="27.28">i</tspan><tspan class="cls-28" x="48.62" y="27.28">t</tspan><tspan class="cls-25" x="56.01" y="27.28">o</tspan><tspan class="cls-27" x="68.5" y="27.28">r</tspan><tspan x="76.02" y="27.28">io</tspan></text><rect class="cls-9" x="18.89" y="379.64" width="120.92" height="60.32"/><text class="cls-12" transform="translate(25.83 416.92)">Dispositi<tspan class="cls-29" x="82.06" y="0">v</tspan><tspan class="cls-30" x="92.77" y="0">o</tspan></text><path d="M465.15,435.75a1.85,1.85,0,0,0-.62-1.46,5.59,5.59,0,0,0-1.54-.94c-.63-.26-1.29-.51-2-.75a10.59,10.59,0,0,1-2-.89,5.08,5.08,0,0,1-1.54-1.41,4.22,4.22,0,0,1,.81-5.37,6.15,6.15,0,0,1,4.05-1.18,16.15,16.15,0,0,1,2.8.22,7.6,7.6,0,0,1,2,.6l-.7,1.91a7.09,7.09,0,0,0-1.71-.51,12.92,12.92,0,0,0-2.5-.22,3.57,3.57,0,0,0-2.32.65,2,2,0,0,0-.77,1.51,1.79,1.79,0,0,0,.61,1.42,6.22,6.22,0,0,0,1.55,1c.62.28,1.29.54,2,.8a11.18,11.18,0,0,1,2,1,5.46,5.46,0,0,1,1.55,1.39,3.58,3.58,0,0,1,.61,2.13,4.48,4.48,0,0,1-.41,1.93,4.12,4.12,0,0,1-1.18,1.48,5.39,5.39,0,0,1-1.87.94,8.49,8.49,0,0,1-2.47.33,14.76,14.76,0,0,1-3.15-.28,9.55,9.55,0,0,1-1.95-.6l.75-2a8.74,8.74,0,0,0,1.72.57,10,10,0,0,0,2.53.29,6.89,6.89,0,0,0,1.48-.14,4,4,0,0,0,1.19-.45,2.3,2.3,0,0,0,.8-.78A2.16,2.16,0,0,0,465.15,435.75Z"/><path d="M470.53,424h9.62v2h-7.34v4.8h6.71v2h-6.71V438h7.46v2h-9.74Z"/><path d="M483.83,424.2c.32-.06.68-.11,1.06-.16l1.17-.11,1.19-.07,1.11,0a9.8,9.8,0,0,1,2.19.23,5.48,5.48,0,0,1,1.87.75,4,4,0,0,1,1.3,1.36,4.12,4.12,0,0,1,.48,2.07,4.72,4.72,0,0,1-.29,1.73,4.5,4.5,0,0,1-.82,1.37,4.83,4.83,0,0,1-1.24,1,6.64,6.64,0,0,1-1.56.6l1.18.8,4.28,6.22h-2.62l-4.73-6.71-2.29-.32v7h-2.28Zm4.6,1.64h-.65l-.65,0-.59.05a1.91,1.91,0,0,0-.43.07v5.5H488a6.61,6.61,0,0,0,1.52-.17,3.86,3.86,0,0,0,1.2-.52,2.6,2.6,0,0,0,.81-.93,3,3,0,0,0,.29-1.38,2.36,2.36,0,0,0-.86-1.94A3.88,3.88,0,0,0,488.43,425.84Z"/><path d="M502.3,434.64l.59,2.48h0l.62-2.53L507.64,424h2.28l-6.6,16.15h-1.14L495.5,424H498Z"/><path d="M513.23,425.54h-1.81V424h5.91v1.5h-1.82v12.92h1.82V440h-5.91v-1.5h1.81Z"/><path d="M532.17,439.28a4.7,4.7,0,0,1-1.9.76,13.91,13.91,0,0,1-2.46.21,8.74,8.74,0,0,1-2.9-.48,6.75,6.75,0,0,1-2.42-1.5,7.27,7.27,0,0,1-1.66-2.57,10.06,10.06,0,0,1-.61-3.7,9.46,9.46,0,0,1,.68-3.8,7.26,7.26,0,0,1,1.77-2.55,7,7,0,0,1,2.46-1.45,8.59,8.59,0,0,1,2.7-.45,15.07,15.07,0,0,1,2.46.16,8,8,0,0,1,1.61.41l-.5,1.95a8.33,8.33,0,0,0-3.39-.52,6.15,6.15,0,0,0-2,.33,4.45,4.45,0,0,0-1.72,1.07,5.12,5.12,0,0,0-1.22,1.93,8.34,8.34,0,0,0-.45,2.92,7.8,7.8,0,0,0,.43,2.72,5.44,5.44,0,0,0,1.19,1.95,5,5,0,0,0,1.8,1.19,6.35,6.35,0,0,0,2.26.39,7.84,7.84,0,0,0,1.93-.2,5.86,5.86,0,0,0,1.39-.52Z"/><path d="M536.47,425.54h-1.82V424h5.91v1.5h-1.81v12.92h1.81V440h-5.91v-1.5h1.82Z"/><path d="M543.45,432a11.67,11.67,0,0,1,.49-3.49,7.33,7.33,0,0,1,1.41-2.59,6.18,6.18,0,0,1,2.25-1.62,8.54,8.54,0,0,1,6.16.05A6.07,6.07,0,0,1,556,426a7.33,7.33,0,0,1,1.34,2.61,12.15,12.15,0,0,1,.44,3.36,11.32,11.32,0,0,1-.49,3.49,7.19,7.19,0,0,1-1.42,2.59,6.1,6.1,0,0,1-2.26,1.62,8.59,8.59,0,0,1-6.18-.05,6,6,0,0,1-2.22-1.68,7.19,7.19,0,0,1-1.33-2.6A11.89,11.89,0,0,1,543.45,432Zm2.41,0a9.91,9.91,0,0,0,.29,2.42,6.13,6.13,0,0,0,.86,2,4.28,4.28,0,0,0,1.48,1.36,4.82,4.82,0,0,0,5.62-1,7.28,7.28,0,0,0,1.28-4.74,9.26,9.26,0,0,0-.29-2.39,6,6,0,0,0-.86-2,4.56,4.56,0,0,0-7.09-.34A7.25,7.25,0,0,0,545.86,432Z"/><path d="M569,435.75a1.85,1.85,0,0,0-.61-1.46,5.66,5.66,0,0,0-1.55-.94c-.62-.26-1.29-.51-2-.75a10.31,10.31,0,0,1-2-.89,5,5,0,0,1-1.54-1.41,4.23,4.23,0,0,1,.8-5.37,6.18,6.18,0,0,1,4.06-1.18,16.15,16.15,0,0,1,2.8.22,7.6,7.6,0,0,1,2,.6l-.71,1.91a6.85,6.85,0,0,0-1.7-.51,12.92,12.92,0,0,0-2.5-.22,3.55,3.55,0,0,0-2.32.65,1.93,1.93,0,0,0-.77,1.51,1.79,1.79,0,0,0,.61,1.42,6.15,6.15,0,0,0,1.54,1c.63.28,1.29.54,2,.8a11.18,11.18,0,0,1,2,1,5.42,5.42,0,0,1,1.54,1.39,3.51,3.51,0,0,1,.62,2.13,4.48,4.48,0,0,1-.41,1.93,4,4,0,0,1-1.19,1.48,5.26,5.26,0,0,1-1.86.94,8.56,8.56,0,0,1-2.48.33,14.89,14.89,0,0,1-3.15-.28,9.63,9.63,0,0,1-1.94-.6l.75-2a8.74,8.74,0,0,0,1.72.57,10,10,0,0,0,2.53.29,7,7,0,0,0,1.48-.14,4,4,0,0,0,1.19-.45,2.39,2.39,0,0,0,.8-.78A2.15,2.15,0,0,0,569,435.75Z"/><path d="M584.13,434.37l.36,2.66h0l.41-2.71L588.47,424h1.14l3.54,10.33.41,2.66h.05l.42-2.71L596.82,424h2.27l-4.84,16.15H593l-3.48-10.35-.48-2.41h-.11l-.45,2.43L585,440.19h-1.32L578.69,424h2.41Z"/><path d="M601.3,424h9.61v2h-7.34v4.8h6.71v2h-6.71V438H611v2H601.3Z"/><path d="M625.28,427.73a3.67,3.67,0,0,1-.19,1.17,3.86,3.86,0,0,1-.59,1.09,4,4,0,0,1-1,.9,4.94,4.94,0,0,1-1.46.57v.09a5.62,5.62,0,0,1,1.41.36,3.85,3.85,0,0,1,1.21.75,3.6,3.6,0,0,1,1.16,2.77,3.9,3.9,0,0,1-.57,2.13,4.71,4.71,0,0,1-1.5,1.48,7.07,7.07,0,0,1-2.11.85,10.4,10.4,0,0,1-2.35.27h-1l-1.24,0-1.3-.09a9.94,9.94,0,0,1-1.14-.17V424.18a21.72,21.72,0,0,1,2.18-.25c.83-.06,1.73-.09,2.68-.09a12.91,12.91,0,0,1,2,.17,6.22,6.22,0,0,1,1.87.6,4,4,0,0,1,1.39,1.18A3.25,3.25,0,0,1,625.28,427.73ZM618.12,431l1,0,1-.08a6.57,6.57,0,0,0,1.07-.41,4.06,4.06,0,0,0,.9-.57,2.58,2.58,0,0,0,.61-.78,2.25,2.25,0,0,0,.22-1,2.29,2.29,0,0,0-.3-1.25,2.09,2.09,0,0,0-.81-.72,3.84,3.84,0,0,0-1.13-.35,9.11,9.11,0,0,0-1.29-.09c-.53,0-1,0-1.46,0s-.78.05-1,.08V431Zm-1.25,7.14a3,3,0,0,0,.48.07l.68,0,.75,0h.69a6.58,6.58,0,0,0,1.48-.16,4,4,0,0,0,1.25-.51,2.59,2.59,0,0,0,.87-.87,2.32,2.32,0,0,0,.33-1.26,2.42,2.42,0,0,0-.4-1.45,2.48,2.48,0,0,0-1-.83,4.7,4.7,0,0,0-1.42-.37c-.53-.05-1-.08-1.56-.08h-2.12Z"/><path class="cls-31" d="M276.91,132.23a20.91,20.91,0,0,0-9.28,2.17,20.89,20.89,0,0,0-37.1.32,20.89,20.89,0,1,0-8.19,40.95,20.89,20.89,0,0,0,31.4,3.83,20.82,20.82,0,0,0,20.6-5.65,21.76,21.76,0,0,0,2.57.16,20.89,20.89,0,0,0,0-41.78Z"/><text class="cls-12" transform="translate(228.44 161.94)">H<tspan class="cls-32" x="14.82" y="0">T</tspan><tspan x="26.99" y="0">TP</tspan></text><line class="cls-1" x1="152.84" y1="287.24" x2="352.7" y2="286.28"/><polygon class="cls-2" points="155.07 294.71 142.08 287.3 155 279.75 155.07 294.71"/><polygon class="cls-2" points="350.55 293.77 363.46 286.23 350.48 278.81 350.55 293.77"/><line class="cls-1" x1="868.75" y1="486.25" x2="867.84" y2="582.52"/><polygon class="cls-2" points="861.25 488.36 868.85 475.48 876.21 488.5 861.25 488.36"/><polygon class="cls-2" points="860.38 580.26 867.74 593.28 875.34 580.4 860.38 580.26"/><path class="cls-31" d="M278.28,261.92a20.87,20.87,0,0,0-9.27,2.17,20.89,20.89,0,0,0-37.1.32,21.22,21.22,0,0,0-4.67-.53,20.89,20.89,0,0,0-3.52,41.48,20.88,20.88,0,0,0,31.39,3.83,20.84,20.84,0,0,0,20.61-5.65,21.59,21.59,0,0,0,2.56.16,20.89,20.89,0,1,0,0-41.78Z"/><text class="cls-12" transform="translate(229.82 291.63)">H<tspan class="cls-32" x="14.82" y="0">T</tspan><tspan x="26.99" y="0">TP</tspan></text><line class="cls-1" x1="151.46" y1="413.25" x2="351.31" y2="412.29"/><polygon class="cls-2" points="153.68 420.72 140.69 413.3 153.61 405.76 153.68 420.72"/><polygon class="cls-2" points="349.16 419.78 362.07 412.24 349.09 404.82 349.16 419.78"/><path class="cls-31" d="M276.89,387.93a20.73,20.73,0,0,0-9.27,2.17,20.89,20.89,0,0,0-37.1.32,21.22,21.22,0,0,0-4.67-.53,20.89,20.89,0,0,0-3.52,41.48,20.88,20.88,0,0,0,31.39,3.83,20.84,20.84,0,0,0,20.61-5.65,21.59,21.59,0,0,0,2.56.16,20.89,20.89,0,0,0,0-41.78Z"/><text class="cls-12" transform="translate(228.43 417.64)">H<tspan class="cls-32" x="14.82" y="0">T</tspan><tspan x="26.99" y="0">TP</tspan></text><line class="cls-1" x1="649.81" y1="196.93" x2="782.36" y2="196.93"/><polygon class="cls-2" points="652 204.41 639.05 196.93 652 189.45 652 204.41"/><polygon class="cls-2" points="780.17 204.41 793.13 196.93 780.17 189.45 780.17 204.41"/><line class="cls-1" x1="543.91" y1="256.47" x2="543.91" y2="303.19"/><polygon class="cls-2" points="536.43 258.66 543.91 245.71 551.39 258.66 536.43 258.66"/><polygon class="cls-2" points="536.43 301 543.91 313.95 551.39 301 536.43 301"/><line class="cls-1" x1="460.98" y1="256.47" x2="460.98" y2="391.16"/><polygon class="cls-2" points="453.5 258.66 460.98 245.71 468.46 258.66 453.5 258.66"/><polygon class="cls-2" points="453.5 388.97 460.98 401.92 468.46 388.97 453.5 388.97"/><path d="M515.13,224.88a11.16,11.16,0,0,1-2.56-.29,10.35,10.35,0,0,1-2.38-.87l.44-2.1h.13a6,6,0,0,0,2.19,1.29,7.56,7.56,0,0,0,2.5.45,5.06,5.06,0,0,0,3-.78,2.39,2.39,0,0,0,1-2,1.57,1.57,0,0,0-.38-1.07,2.26,2.26,0,0,0-1.1-.63c-.4-.11-.88-.22-1.43-.32s-1.08-.21-1.58-.33a4.5,4.5,0,0,1-2.26-1.11,2.65,2.65,0,0,1-.79-2,4,4,0,0,1,1.67-3.29,6.85,6.85,0,0,1,4.33-1.31,10.74,10.74,0,0,1,2.63.3,11.22,11.22,0,0,1,2,.71l-.42,2h-.13a5.59,5.59,0,0,0-1.88-1,7.58,7.58,0,0,0-2.57-.44,4.47,4.47,0,0,0-2.69.74,2.28,2.28,0,0,0-1,1.89,1.69,1.69,0,0,0,.36,1.07,2.32,2.32,0,0,0,1.29.7l1.58.34c.66.13,1.21.26,1.65.37a4.28,4.28,0,0,1,2,1.08,2.49,2.49,0,0,1,.68,1.8,4,4,0,0,1-.44,1.81,4.52,4.52,0,0,1-1.25,1.54,6.35,6.35,0,0,1-2,1.08A8.47,8.47,0,0,1,515.13,224.88Z"/><path d="M528.12,224.87a5.18,5.18,0,0,1-3.38-1,3.65,3.65,0,0,1-1.22-3,7.14,7.14,0,0,1,1.8-4.89,5.68,5.68,0,0,1,4.45-2,3.8,3.8,0,0,1,2.69.88,3.2,3.2,0,0,1,.94,2.46,8.54,8.54,0,0,1-.08.89c-.05.4-.14.86-.26,1.4h-7.63a5.06,5.06,0,0,0-.08.52,4.27,4.27,0,0,0,0,.49,2.66,2.66,0,0,0,.79,2,3.2,3.2,0,0,0,2.27.75,6,6,0,0,0,2.1-.4,7.63,7.63,0,0,0,1.81-.9h.11L532,224l-.84.31a8.57,8.57,0,0,1-.94.28l-1,.21A6.84,6.84,0,0,1,528.12,224.87Zm3.48-6.55c0-.18,0-.33.06-.46a2.62,2.62,0,0,0,0-.41,2.15,2.15,0,0,0-.54-1.55,2.34,2.34,0,0,0-1.74-.55,3.66,3.66,0,0,0-2.34.81,4.06,4.06,0,0,0-1.38,2.16Z"/><path d="M542.9,216.1h-.09c-.25-.06-.48-.11-.69-.14s-.47,0-.78,0a4,4,0,0,0-1.72.4,10.79,10.79,0,0,0-1.65.94l-1.68,7.36h-1.76l2.36-10.36h1.77l-.35,1.53a10.56,10.56,0,0,1,2.09-1.19,4.38,4.38,0,0,1,1.64-.34,5,5,0,0,1,.66,0l.6.08Z"/><path d="M553.86,214.26l-6.58,10.36h-1.74l-1.77-10.36h1.77l1.31,8.28,5.1-8.28Z"/><path d="M559,210.19l-3.34,14.43h-1.74l3.34-14.43Z"/><path d="M564,224.87a5.15,5.15,0,0,1-3.37-1,3.63,3.63,0,0,1-1.23-3,7.14,7.14,0,0,1,1.8-4.89,5.7,5.7,0,0,1,4.45-2,3.83,3.83,0,0,1,2.7.88,3.23,3.23,0,0,1,.93,2.46,7.87,7.87,0,0,1-.07.89c-.06.4-.14.86-.26,1.4h-7.64a5,5,0,0,0-.07.52,4.42,4.42,0,0,0,0,.49,2.67,2.67,0,0,0,.8,2,3.18,3.18,0,0,0,2.26.75,6,6,0,0,0,2.11-.4,7.83,7.83,0,0,0,1.81-.9h.1l-.38,1.88-.83.31a8.18,8.18,0,0,1-.95.28q-.57.13-1,.21A6.66,6.66,0,0,1,564,224.87Zm3.48-6.55a3.24,3.24,0,0,0,.07-.46c0-.12,0-.26,0-.41a2.15,2.15,0,0,0-.54-1.55,2.38,2.38,0,0,0-1.74-.55,3.66,3.66,0,0,0-2.34.81,4.06,4.06,0,0,0-1.38,2.16Z"/><path d="M578.17,214.26l-.31,1.41h-3.61l-1.1,4.79a6.69,6.69,0,0,0-.17.83,5.06,5.06,0,0,0-.08.75,1.32,1.32,0,0,0,.35,1,1.85,1.85,0,0,0,1.27.33,3.67,3.67,0,0,0,.9-.13,5.13,5.13,0,0,0,.71-.2h.09l-.32,1.49c-.35.09-.72.16-1.11.22a8.41,8.41,0,0,1-1,.08,3.14,3.14,0,0,1-2-.56,2.18,2.18,0,0,1-.7-1.78,3.92,3.92,0,0,1,.05-.59c0-.19.06-.41.11-.66l1.29-5.57h-1.18l.32-1.41h1.19l.69-3h1.75l-.7,3Z"/><path d="M581.12,224.88a7,7,0,0,1-2.07-.29,8.79,8.79,0,0,1-1.53-.62l.39-1.87H578l.51.4a5,5,0,0,0,.79.45,5.53,5.53,0,0,0,1,.36,4.59,4.59,0,0,0,1.2.15,3.75,3.75,0,0,0,2-.48,1.57,1.57,0,0,0,.74-1.42.84.84,0,0,0-.38-.75,3.12,3.12,0,0,0-1.09-.43l-.87-.19q-.51-.1-1-.24a3.26,3.26,0,0,1-1.61-.89,2,2,0,0,1-.52-1.41,3,3,0,0,1,.32-1.36,3.84,3.84,0,0,1,.93-1.16,4.75,4.75,0,0,1,1.52-.81,6.52,6.52,0,0,1,2-.31,7.81,7.81,0,0,1,1.85.23,5.8,5.8,0,0,1,1.5.58l-.37,1.78h-.09c-.1-.08-.25-.19-.45-.32a4.7,4.7,0,0,0-.76-.42,5.75,5.75,0,0,0-.94-.31,4.42,4.42,0,0,0-1.1-.13,3.27,3.27,0,0,0-1.89.49,1.52,1.52,0,0,0-.72,1.33,1,1,0,0,0,.35.77,2.53,2.53,0,0,0,1.08.49c.3.08.62.15.95.21l1,.21a3.35,3.35,0,0,1,1.62.83,2,2,0,0,1,.54,1.42,3,3,0,0,1-.34,1.4,3.34,3.34,0,0,1-1,1.18,4.8,4.8,0,0,1-1.59.83A6.94,6.94,0,0,1,581.12,224.88Z"/><path d="M829.28,343a4.74,4.74,0,0,1-1.74,2.8,5.25,5.25,0,0,1-3.2,1c-.29,0-.68,0-1.16-.08a10.52,10.52,0,0,1-1.2-.19l.39-1.65h.1c.24.09.54.18.88.27a4.44,4.44,0,0,0,1.11.14,3.77,3.77,0,0,0,1.4-.22,2.07,2.07,0,0,0,.87-.59,3.06,3.06,0,0,0,.53-1,9.48,9.48,0,0,0,.33-1.2l1.86-8.13h-3l.33-1.4h4.86Z"/><path d="M838.44,345.52l-.68.42a5.77,5.77,0,0,1-.88.47,6.57,6.57,0,0,1-1.06.36,5.93,5.93,0,0,1-1.34.14,2.85,2.85,0,0,1-2-.72,2.46,2.46,0,0,1-.77-1.88,3.73,3.73,0,0,1,.55-2.08,3.87,3.87,0,0,1,1.61-1.38,8.4,8.4,0,0,1,2.52-.77,24.94,24.94,0,0,1,3.38-.29c0-.17.07-.33.09-.45a1.75,1.75,0,0,0,0-.4,1.33,1.33,0,0,0-.18-.72,1.22,1.22,0,0,0-.5-.45,2.28,2.28,0,0,0-.75-.22,7.06,7.06,0,0,0-1-.06,7.51,7.51,0,0,0-1.8.25,13.11,13.11,0,0,0-1.64.51H834l.34-1.75c.35-.09.87-.19,1.55-.31a11.25,11.25,0,0,1,2-.18,5.45,5.45,0,0,1,2.89.61,2.07,2.07,0,0,1,1,1.91,3.49,3.49,0,0,1,0,.53,3.89,3.89,0,0,1-.09.53l-1.62,7h-1.73Zm1-4.36a24.59,24.59,0,0,0-2.54.22,7.34,7.34,0,0,0-1.83.47,2.57,2.57,0,0,0-1.14.83,2.11,2.11,0,0,0-.39,1.3,1.21,1.21,0,0,0,.45,1,2.29,2.29,0,0,0,1.41.35,4.3,4.3,0,0,0,1.72-.37,8.71,8.71,0,0,0,1.64-.91Z"/><path d="M854.5,336.26l-6.59,10.36h-1.73l-1.78-10.36h1.77l1.31,8.28,5.1-8.28Z"/><path d="M861.08,345.52l-.69.42a5.67,5.67,0,0,1-.87.47,6.92,6.92,0,0,1-1.06.36,6,6,0,0,1-1.35.14,2.8,2.8,0,0,1-2-.72,2.46,2.46,0,0,1-.77-1.88,3.81,3.81,0,0,1,.54-2.08,4,4,0,0,1,1.61-1.38,8.47,8.47,0,0,1,2.53-.77,24.93,24.93,0,0,1,3.37-.29c0-.17.07-.33.1-.45a2.58,2.58,0,0,0,0-.4,1.33,1.33,0,0,0-.18-.72,1.29,1.29,0,0,0-.5-.45,2.42,2.42,0,0,0-.76-.22,6.8,6.8,0,0,0-1-.06,7.44,7.44,0,0,0-1.8.25,13.11,13.11,0,0,0-1.64.51h-.1l.35-1.75c.35-.09.87-.19,1.55-.31a11.23,11.23,0,0,1,2-.18,5.47,5.47,0,0,1,2.9.61,2.08,2.08,0,0,1,1,1.91,3.4,3.4,0,0,1,0,.53c0,.19-.06.37-.1.53l-1.62,7h-1.73Zm1-4.36a24.59,24.59,0,0,0-2.54.22,7.34,7.34,0,0,0-1.83.47,2.57,2.57,0,0,0-1.14.83,2.11,2.11,0,0,0-.39,1.3,1.21,1.21,0,0,0,.45,1,2.25,2.25,0,0,0,1.41.35,4.34,4.34,0,0,0,1.72-.37,9,9,0,0,0,1.64-.91Z"/><path d="M875.42,345.51a6.24,6.24,0,0,1-1.88.86,9.83,9.83,0,0,1-2.42.25h-5.07l3.17-13.81h4a17.66,17.66,0,0,1,2.25.1,3.52,3.52,0,0,1,1.35.48,2,2,0,0,1,.77.8,2.26,2.26,0,0,1,.25,1.08,3.46,3.46,0,0,1-.68,2.11,4.23,4.23,0,0,1-1.87,1.42v.08a3,3,0,0,1,1.7.93,2.59,2.59,0,0,1,.59,1.77,4.43,4.43,0,0,1-.59,2.23A4.85,4.85,0,0,1,875.42,345.51Zm.19-3.81a1.44,1.44,0,0,0-.8-1.44,2.31,2.31,0,0,0-.95-.3,13.24,13.24,0,0,0-1.61-.08h-2.79l-1.21,5.23h2.53a12,12,0,0,0,2-.13,3.73,3.73,0,0,0,1.34-.48,2.83,2.83,0,0,0,1.11-1.19A3.47,3.47,0,0,0,875.61,341.7Zm.21-5.91a1.53,1.53,0,0,0-.13-.65,1.15,1.15,0,0,0-.37-.42,2.32,2.32,0,0,0-1-.33,14.87,14.87,0,0,0-1.51-.07h-2.1l-.94,4.09h2.41a7.12,7.12,0,0,0,1.39-.11,3.45,3.45,0,0,0,1-.37,2.19,2.19,0,0,0,.88-.95A2.74,2.74,0,0,0,875.82,335.79Z"/><path d="M883.84,346.87a5.18,5.18,0,0,1-3.38-1,3.65,3.65,0,0,1-1.22-3A7.14,7.14,0,0,1,881,338a5.7,5.7,0,0,1,4.45-2,3.8,3.8,0,0,1,2.69.88,3.2,3.2,0,0,1,.94,2.46,8.54,8.54,0,0,1-.08.89c0,.4-.14.86-.25,1.4h-7.64a5.06,5.06,0,0,0-.08.52c0,.18,0,.34,0,.49a2.63,2.63,0,0,0,.8,2.05,3.16,3.16,0,0,0,2.26.75,6,6,0,0,0,2.1-.4,7.91,7.91,0,0,0,1.82-.9h.1l-.38,1.88-.84.31a8,8,0,0,1-.94.28c-.39.09-.72.16-1,.21A6.84,6.84,0,0,1,883.84,346.87Zm3.48-6.55c0-.18,0-.33.06-.46a2.62,2.62,0,0,0,0-.41,2.15,2.15,0,0,0-.54-1.55,2.34,2.34,0,0,0-1.74-.55,3.66,3.66,0,0,0-2.34.81,4.06,4.06,0,0,0-1.38,2.16Z"/><path d="M896.83,345.52l-.68.42a5.77,5.77,0,0,1-.88.47,6.57,6.57,0,0,1-1.06.36,5.93,5.93,0,0,1-1.34.14,2.85,2.85,0,0,1-2-.72,2.46,2.46,0,0,1-.77-1.88,3.81,3.81,0,0,1,.55-2.08,3.94,3.94,0,0,1,1.61-1.38,8.5,8.5,0,0,1,2.52-.77,24.94,24.94,0,0,1,3.38-.29c0-.17.07-.33.09-.45a1.75,1.75,0,0,0,0-.4,1.42,1.42,0,0,0-.17-.72,1.32,1.32,0,0,0-.51-.45,2.28,2.28,0,0,0-.75-.22,7,7,0,0,0-1-.06,7.52,7.52,0,0,0-1.81.25,13.11,13.11,0,0,0-1.64.51h-.09l.34-1.75c.35-.09.87-.19,1.55-.31a11.25,11.25,0,0,1,2-.18,5.45,5.45,0,0,1,2.89.61,2.07,2.07,0,0,1,1,1.91c0,.16,0,.34,0,.53s-.06.37-.1.53l-1.62,7h-1.73Zm1-4.36a24.59,24.59,0,0,0-2.54.22,7.46,7.46,0,0,0-1.83.47,2.57,2.57,0,0,0-1.14.83,2.11,2.11,0,0,0-.39,1.3,1.21,1.21,0,0,0,.45,1,2.29,2.29,0,0,0,1.41.35,4.3,4.3,0,0,0,1.72-.37,8.71,8.71,0,0,0,1.64-.91Z"/><path d="M912,338.63a5.1,5.1,0,0,1,0,.6,3.9,3.9,0,0,1-.11.67l-1.55,6.72H908.6l1.35-5.9c.08-.32.13-.61.17-.85a4.59,4.59,0,0,0,.06-.73,1.67,1.67,0,0,0-.38-1.18,1.94,1.94,0,0,0-1.39-.39,3.8,3.8,0,0,0-1.56.39,12.46,12.46,0,0,0-1.66.93l-1.78,7.73h-1.75l2.4-10.36h1.74l-.27,1.15a10.76,10.76,0,0,1,1.86-1.06,4.5,4.5,0,0,1,1.79-.38,3,3,0,0,1,2.11.69A2.52,2.52,0,0,1,912,338.63Z"/><path d="M916.93,346.88a7,7,0,0,1-2.08-.29,8.35,8.35,0,0,1-1.52-.62l.38-1.87h.1l.5.4a5.19,5.19,0,0,0,.8.45,5.7,5.7,0,0,0,1,.36,4.72,4.72,0,0,0,1.21.15,3.77,3.77,0,0,0,2.05-.48,1.59,1.59,0,0,0,.74-1.42.86.86,0,0,0-.38-.75,3.19,3.19,0,0,0-1.1-.43l-.86-.19-1-.24a3.3,3.3,0,0,1-1.61-.89,2,2,0,0,1-.51-1.41,3,3,0,0,1,.31-1.36,3.73,3.73,0,0,1,.94-1.16,4.69,4.69,0,0,1,1.51-.81,6.52,6.52,0,0,1,2-.31,7.75,7.75,0,0,1,1.85.23,5.88,5.88,0,0,1,1.51.58l-.37,1.78h-.09c-.1-.08-.25-.19-.45-.32a4.85,4.85,0,0,0-.77-.42,5.62,5.62,0,0,0-.93-.31,4.56,4.56,0,0,0-1.11-.13,3.26,3.26,0,0,0-1.88.49,1.51,1.51,0,0,0-.73,1.33,1,1,0,0,0,.35.77,2.59,2.59,0,0,0,1.08.49c.3.08.62.15,1,.21l1,.21a3.35,3.35,0,0,1,1.62.83,2,2,0,0,1,.54,1.42,3.16,3.16,0,0,1-.33,1.4,3.56,3.56,0,0,1-1,1.18,4.75,4.75,0,0,1-1.6.83A6.83,6.83,0,0,1,916.93,346.88Z"/><path d="M550.28,359a4.74,4.74,0,0,1-1.74,2.8,5.25,5.25,0,0,1-3.2,1c-.29,0-.68,0-1.16-.08a10.52,10.52,0,0,1-1.2-.19l.39-1.65h.1c.24.09.54.18.88.27a4.44,4.44,0,0,0,1.11.14,3.77,3.77,0,0,0,1.4-.22,2.07,2.07,0,0,0,.87-.59,3.06,3.06,0,0,0,.53-1,9.48,9.48,0,0,0,.33-1.2l1.86-8.13h-3l.33-1.4h4.86Z"/><path d="M557.77,362.88a11.16,11.16,0,0,1-2.56-.29,10.42,10.42,0,0,1-2.39-.87l.45-2.1h.13a6,6,0,0,0,2.18,1.29,7.65,7.65,0,0,0,2.5.45,5,5,0,0,0,3-.78,2.38,2.38,0,0,0,1.06-2,1.57,1.57,0,0,0-.38-1.07,2.3,2.3,0,0,0-1.1-.63c-.4-.11-.88-.22-1.43-.32s-1.08-.21-1.58-.33a4.46,4.46,0,0,1-2.26-1.11,2.66,2.66,0,0,1-.8-2,4,4,0,0,1,1.68-3.29,6.85,6.85,0,0,1,4.33-1.31,10.74,10.74,0,0,1,2.63.3,11.37,11.37,0,0,1,2,.71l-.41,2h-.13a5.59,5.59,0,0,0-1.88-1,7.63,7.63,0,0,0-2.57-.44,4.47,4.47,0,0,0-2.69.74,2.28,2.28,0,0,0-1,1.89,1.69,1.69,0,0,0,.36,1.07,2.25,2.25,0,0,0,1.29.7c.4.09.92.21,1.58.34s1.21.26,1.65.37a4.33,4.33,0,0,1,2,1.08,2.53,2.53,0,0,1,.68,1.8,4.12,4.12,0,0,1-.44,1.81,4.64,4.64,0,0,1-1.25,1.54,6.4,6.4,0,0,1-2,1.08A8.36,8.36,0,0,1,557.77,362.88Z"/><path d="M575.49,356.05a5.81,5.81,0,0,1-1.9,1.05,8.2,8.2,0,0,1-2.54.35h-2l-1.19,5.17H566l3.19-13.81h3.63a8.16,8.16,0,0,1,2.09.22,3.85,3.85,0,0,1,1.35.64,2.72,2.72,0,0,1,.83,1,3.19,3.19,0,0,1,.29,1.44,4.84,4.84,0,0,1-.49,2.15A5.28,5.28,0,0,1,575.49,356.05Zm-.08-3.6a2.5,2.5,0,0,0-.16-.88,1.52,1.52,0,0,0-.49-.67,2.47,2.47,0,0,0-.94-.44,6,6,0,0,0-1.41-.14h-1.72l-1.3,5.64H571a6.8,6.8,0,0,0,1.84-.21,3.44,3.44,0,0,0,1.28-.65,3.36,3.36,0,0,0,.93-1.19A3.33,3.33,0,0,0,575.41,352.45Z"/><path class="cls-33" d="M867,380h-2.73q-1.66.06-3.3.18h-1.22l-.74.07.29,3c2.54-.25,5.14-.37,7.7-.37v-3Zm-15.9,1.52q-3.93.75-7.78,1.87l.84,2.88c2.47-.72,5-1.33,7.5-1.81l-.56-2.94ZM835.75,386l-.52.2h0l-.06,0h0l-.11,0H835l0,0h0l0,0h-.18l0,0,0,0h0l0,0h-.07l-.12.05h-.09q-3,1.21-5.86,2.64l1.32,2.69c2.33-1.14,4.71-2.19,7.09-3.12L835.75,386Zm-14.35,7q-3.42,2-6.72,4.34l1.72,2.46c2.14-1.5,4.34-2.92,6.53-4.22L821.4,393Zm-13.11,9.16-.94.77h0l0,0h0l0,0h0l-.15.13h0l0,0h0l0,0v0l0,0h0l-.1.08,0,0,0,0h0l0,0v0l0,0,0,0,0,0,0,0h0l0,0h0l0,0h0l0,0v0l0,0v0l0,0h0l-.1.08h0l0,0h0l0,0h0l0,0h0l-.14.12h0l0,0h0q-1.9,1.6-3.75,3.32l2,2.21c1.93-1.78,3.91-3.5,5.9-5.11l-1.89-2.33ZM796.54,413l-.9.94h0l0,0v0l0,0,0,0,0,0,0,0h0l0,0h0q-2,2.17-4,4.47h0l0,0v0l0,0h0l0,0v0l0,0v0l0,0,0,0,0,0,0,0h0l2.28,1.95c1.71-2,3.48-3.94,5.26-5.79L796.54,413Zm-10.42,12.13-1,1.38h0l0,0h0l0,0h0l0,0,0,0,0,0v0l0,0,0,0,0,0-.12.16h0l0,0h0l0,0h0c-1.1,1.49-2.2,3-3.27,4.55l2.47,1.71c1.5-2.16,3.06-4.29,4.63-6.34l-2.38-1.83ZM777,438.26h0c-1.4,2.24-2.77,4.53-4.09,6.87l2.61,1.48c1.29-2.29,2.65-4.56,4-6.75l-2.54-1.6Zm-7.89,13.92q-1.8,3.52-3.5,7.19l2.72,1.26c1.11-2.39,2.27-4.78,3.45-7.09l-2.67-1.36Zm-6.72,14.51-.26.63h0l0,.05h0v.05h0l0,0v.11l0,0h0l0,.05h0l0,.05h0c-.86,2.09-1.69,4.22-2.5,6.37l2.81,1.05c.92-2.46,1.9-4.93,2.9-7.33l-2.77-1.16Zm-5.61,15-.45,1.37h0l0,.06h0l0,.05v.18l0,0h0l0,.05h0l0,.05h0l0,.05h0c-.61,1.89-1.21,3.8-1.78,5.73l2.88.86c.75-2.53,1.54-5.06,2.37-7.54l-2.85-.95ZM752.24,497q-1,3.67-1.81,7.43h0v.07l0,0v.22h0l2.93.66c.58-2.57,1.21-5.15,1.86-7.68l-2.9-.76Zm-3.52,15.61c-.12.65-.25,1.3-.37,2h0v0h0V515h0v.06h0v0h0v.06h0c-.32,1.75-.62,3.5-.91,5.28l3,.47c.41-2.6.87-5.22,1.37-7.79l-2.95-.56Zm-2.53,15.79c-.17,1.39-.34,2.77-.5,4.17h0v.07h0v.64h0l0,.31h0l-.24,2.24h0l0,.23v.25h0l3,.3c.26-2.62.56-5.27.89-7.86l-3-.39Zm-1.56,15.93c-.17,2.5-.31,5-.41,7.56h0V552h0V552h0v.14h0v.12l3,.12c.11-2.63.25-5.29.42-7.9l-3-.2Zm-.62,16c0,.52,0,1,0,1.55V563h0v.67h0v.56h0v.58h0v.32h0v.08h0v.07h0c0,1,0,2,0,3l3-.06c0-1.75,0-3.52,0-5.27,0-.88,0-1.77,0-2.65l-3,0Zm3.31,15.86-3,.14q.2,4,.5,8l3-.24c-.21-2.61-.38-5.27-.5-7.89ZM748.55,592l-3,.32c.07.71.15,1.41.23,2.11h0v.31l0,.27h0V595h0c.2,1.74.43,3.46.66,5.17l3-.41c-.36-2.59-.69-5.23-1-7.85Zm2.17,15.66-3,.5c.3,1.79.62,3.56,1,5.33h0v.06h0l0,.06h0v.32h0V614h0v0h0v.06h0c.12.63.25,1.26.37,1.89l2.94-.6c-.52-2.56-1-5.17-1.45-7.77Zm3.15,15.49-2.92.69c.19.81.39,1.62.59,2.43v.43l0,.06h0c.4,1.62.83,3.24,1.26,4.84l2.9-.79c-.69-2.52-1.34-5.09-2-7.66ZM758,638.35l-2.86.88.48,1.54h0V641h0q.93,2.94,1.93,5.8l2.83-1c-.85-2.46-1.68-5-2.46-7.5Zm5.18,14.91-2.8,1.08q1.47,3.76,3,7.41l2.75-1.19c-1-2.39-2-4.85-3-7.3Zm6.25,14.47-2.7,1.3c.36.76.73,1.51,1.1,2.26h0l0,.05h0l0,0h0l0,.05h0l0,0v0l0,0h0l0,0v0l0,0v0l0,0v.08l0,0v0l0,0v0l0,0V672l0,0v0l0,0v.06l0,0v.06l0,0v0l0,0v0l0,0v.08l0,0v0l0,0h0l0,.05h0l0,0h0l0,.05h0l0,0h0l0,.05h0l.06.11h0q.83,1.64,1.68,3.24l2.65-1.4c-1.22-2.29-2.41-4.66-3.55-7Zm7.38,13.92-2.59,1.51q1.14,2,2.33,3.87h0l0,.05h0l0,0h0l0,0v0l0,0,0,0,0,0v0l0,0v0l0,0v0h0l1.62,2.55,2.52-1.63c-1.4-2.17-2.79-4.42-4.12-6.69Zm8.55,13.18-2.44,1.75h0v0c1.18,1.65,2.4,3.27,3.63,4.85h0l.06.08h0l.05.07,0,0h0l0,0h0l0,0h0l0,0h0l.91,1.16,2.35-1.87c-1.61-2-3.2-4.12-4.73-6.26Zm9.78,12.26-2.24,2,1.17,1.31h0l0,0h0l0,0h0l0,0,0,0,0,0h0l0,0h0l0,0,0,0,0,0,0,0h0l0,0,0,0,0,0v0l0,0h0l.18.19h0l0,0h0l0,0h0q1.79,1.94,3.61,3.76l2.12-2.12c-1.81-1.82-3.62-3.74-5.36-5.7Zm11.05,11-2,2.25c1.75,1.55,3.53,3,5.33,4.46h0l.05,0h0l.19.16h0l0,0h0l.2.15h0l0,0h0l.19.15h0l0,0h0l0,0h0l1.84-2.37c-2-1.56-4.05-3.24-6-5Zm12.33,9.52-1.66,2.5,0,0h0l.15.11h0l0,0h0l0,0h0l.1.06h0l0,0h0l0,0h0l0,0h0l0,0,0,0h0l0,0h0l0,0,0,0h0l.05,0h0l0,0h0l0,0h0l0,0h0l.06,0h0l0,0h0l0,0h0l0,0h0l.11.07h0l0,0h0l0,0h0l.11.07h0l0,0h0l0,0h0l0,0h0l.12.07h0l0,0h0l0,0h0l.11.07h0l0,0h0l0,0h0l0,0,0,0h0l0,0h0l0,0h0l0,0h0l.05,0,0,0h0l0,0h0l0,0h0l0,0,0,0,0,0h0l0,0h0l0,0h0l0,0h0l0,0h0l0,0,0,0h0l0,0h0l0,0,0,0h0l0,0h0l0,0h0l0,0h0l0,0h0l0,0h0l0,0h0l0,0h0l0,0h0l0,0h0l0,0h0l0,0h0l0,0h0l0,0h0l.05,0h0l0,0h0l0,0h0l0,0h0l0,0h0l0,0h0l0,0h0l0,0h0l0,0h0l0,0h0l0,0h0l0,0h0l0,0,0,0h0l0,0h0l0,0h0l0,0h0l.1.06h0l0,0h0l0,0h0l.12.08h0l0,0h0l0,0h0c.56.33,1.13.65,1.7,1l1.47-2.61c-2.23-1.25-4.46-2.61-6.63-4.06Zm13.54,7.57L830.82,738q3.66,1.68,7.41,3l1-2.83c-2.4-.85-4.81-1.84-7.17-2.91Zm14.55,5.18-.75,2.9.43.11h0l.12,0H847c2.22.54,4.47,1,6.72,1.35l.48-3c-2.52-.4-5.06-.93-7.56-1.57Zm15.22,2.43-.19,3h6l2,0-.1-3c-.84,0-1.7,0-2.55,0-1.72,0-3.45-.06-5.16-.16Zm23-1.82c-2.51.56-5.06,1-7.6,1.33l.38,3c1.92-.25,3.82-.56,5.72-.93h.1l.09,0h.57l1.4-.31-.66-2.92Zm14.7-4.74c-2.39,1-4.83,1.92-7.25,2.7l.92,2.86,2-.68h0l.17-.06h0l.05,0h0l.11,0h0l0,0h.12l0,0h.13l.05,0h0l.06,0h.36l.05,0h.4l0,0h.17l0,0h.4l0,0h.16l0,0h.19l.05,0h.16l0,0h.18l.06,0h.17l.07,0h.11l.12-.05h0l0,0h0l0,0h0l.12,0h0l0,0h0l.17-.07h.06l.18-.08h0l1.13-.47-1.17-2.76Zm13.73-7.19c-2.21,1.39-4.47,2.69-6.73,3.88l1.39,2.65.5-.26h0l.05,0h0l.11-.06h0l0,0h0l0,0h0l0,0h0l0,0h0l0,0h0l0,0H909l0,0h0l0,0h.07l0,0h0l0,0h0l.08,0h.06l0,0h0l.17-.09h0c.85-.47,1.7-1,2.54-1.44h0l.22-.13h0l0,0h0l.16-.1h0l0,0h0l0,0h0l.06,0h0l0,0h0l0,0h0l0,0,0,0h0l0,0h0l0,0h0l0,0h0l0,0h0l0,0h0l.05,0h0l0,0h0l1.6-1-1.59-2.54Zm12.54-9.22c-2,1.69-4.06,3.32-6.12,4.84l1.78,2.41c2.13-1.56,4.22-3.22,6.28-5l-1.94-2.29Zm11.27-10.82c-1.79,1.93-3.63,3.81-5.48,5.59l2.08,2.16.16-.15h0l0,0h0l0,0,0,0,0,0v0l0,0,0,0,0,0,0,0v0l0,0v0l0,0h0l0,0h0c1.67-1.63,3.32-3.31,4.93-5.06h0l0,0h0l0,0h0l0,0h0l-2.2-2Zm10-12.07c-1.57,2.11-3.2,4.19-4.84,6.17l2.31,1.91.13-.15h0l.08-.1,0,0v0l0,0h0l0,0h0l0,0h0l0,0h0c1.3-1.59,2.59-3.23,3.85-4.9h0l0,0h0l0,0h0l0,0h0l0,0h0l0-.05h0l0,0,0,0v0l0,0v0l0,0h0l0,0h0l0,0h0c.09-.13.19-.26.29-.38L947.07,697Zm8.75-13.05c-1.36,2.25-2.78,4.48-4.22,6.63l2.49,1.67q2-3,3.95-6.18h0l0,0h0l0,0h0l0,0v0l0,0v0l0,0,0,0v0l0,0h0l.13-.22-2.57-1.55Zm7.57-13.8c-1.17,2.36-2.39,4.71-3.64,7l2.63,1.44c1.27-2.32,2.51-4.68,3.7-7.09l-2.69-1.33Zm6.44-14.39c-1,2.44-2,4.88-3.08,7.26l2.74,1.22c1.08-2.41,2.12-4.87,3.12-7.36l-2.78-1.12Zm5.36-14.85c-.81,2.51-1.67,5-2.55,7.47l2.82,1q1.35-3.74,2.58-7.57l-2.85-.92Zm4.31-15.19c-.63,2.55-1.32,5.12-2,7.63l2.89.82c.3-1.07.6-2.15.89-3.24h0l0-.06h0v-.13l0-.05h0v0h0l0-.05v-.12h0l0-.06h0l0-.05h0v-.12h0l0,0V630h0v0h0l0-.06h0l.42-1.63h0l0-.07h0l0-.06h0v0h0l0-.05v-.14h0l0,0v-.07h0v0h0v-.05h0v-.06h0l0-.06h0l.27-1.1-2.91-.72Zm3.31-15.45c-.47,2.59-1,5.19-1.53,7.75l2.93.63q.25-1.14.48-2.28h0l0-.06h0c0-.13,0-.26.08-.4h0v-.06h0l0-.06h0v-.07h0l0-.14h0c.31-1.57.62-3.16.91-4.75l-3-.53Zm2.34-15.65c-.31,2.62-.66,5.25-1,7.84l3,.45c.22-1.47.42-2.93.62-4.4h0v-.06h0v-.06h0v-.06h0v-.21h0v-.38l0-.23h0v-.06h0v0h0v-.06h0c.1-.77.19-1.53.28-2.3l-3-.36Zm1.39-15.75c-.15,2.62-.35,5.28-.58,7.89l3,.26q.1-1.08.18-2.16v-.39h0v-.06h0v-.07h0c.13-1.68.24-3.35.34-5V579h0l-3-.17ZM987,563c0,2.63,0,5.29-.11,7.91l3,.09c0-.51,0-1,0-1.54h0v-.15h0v-.48h0v-.06h0c0-.66,0-1.32,0-2h0v-.06h0v-.05h0v-.24h0v0h0v-.69h0v-.58h0c0-.67,0-1.33,0-2h0v0Zm2.54-16-3,.18c.16,2.61.27,5.27.35,7.9l3-.08q-.09-3-.24-6h0V549h0v-.06h0v0h0v-.34h0c0-.48,0-1-.08-1.45Zm-1.4-15.93-3,.35c.31,2.6.58,5.25.81,7.87l3-.26q-.3-3.4-.68-6.76h0v-.07h0v-.07h0v-.31h0c0-.25-.05-.49-.08-.74Zm-2.36-15.83-3,.54c.47,2.57.9,5.2,1.29,7.8l3-.44-.27-1.74h0v-.06h0v-.06h0l0-.23h0v-.48h0l0-.14h0v-.06h0v-.19h0v-.06h0V520h0l0-.13h0v-.06h0v-.4h0l0-.13h0v-.06h0v-1l0-.15v-.26h0v-.11h0l0-.18h0v-.05h0V517l0-.08v-.43h0l0-.07h0c-.06-.38-.13-.78-.2-1.17Zm-3.35-15.64-2.92.72c.63,2.54,1.23,5.13,1.78,7.7l2.94-.62h0v-.05h0v-.19h0v-.06h0l0-.06h0V507h0c-.35-1.61-.71-3.2-1.08-4.78h0c0-.09,0-.18-.07-.26v-.24h0l0-.05h0v-.05h0c-.16-.64-.31-1.29-.47-1.93Zm-4.37-15.39-2.86.92c.8,2.48,1.57,5,2.29,7.56l2.88-.82c-.25-.88-.5-1.75-.76-2.62h0l0-.06h0l0-.06h0v-.06h0l0-.12h0l0-.06h0l0-.05h0l0-.06,0-.1v-.07h0l0,0v0l0,0h0l0-.06h0v-.06h0v-.06h0q-.62-2-1.26-4.05Zm-5.43-15-2.78,1.12c1,2.41,1.92,4.89,2.81,7.37l2.82-1-.33-.9h0l0-.06h0l0-.06h0l0,0v-.12l0,0h0l0-.05h0l0-.12h0q-1-2.65-2-5.27l0,0h0l-.3-.74Zm-6.53-14.61-2.68,1.33c1.15,2.33,2.28,4.73,3.35,7.13l2.74-1.22c-1.1-2.45-2.23-4.87-3.41-7.24Zm-7.68-14-2.57,1.56c1.34,2.21,2.66,4.51,3.93,6.82l2.63-1.44-.32-.59h0l0-.05h0l0-.05h0l0,0h0l0,0v0l0,0h0l0,0v0l0,0v0l0,0,0,0v0l0,0v0l0,0v0l0,0v0l0,0h0c-.07-.13-.14-.26-.22-.39h0l-.06-.1h0l-.06-.1h0c-1-1.71-2-3.4-3-5.06Zm-8.91-13.28-2.41,1.79c1.54,2.07,3.06,4.23,4.53,6.42l2.49-1.67c-.67-1-1.34-2-2-3h0l0,0,0,0v0l0,0,0,0,0,0h0l0,0h0l0,0h0l0-.05h0c-.78-1.1-1.56-2.18-2.35-3.25ZM939.32,415l-2.21,2c1.75,1.89,3.48,3.88,5.16,5.9l2.31-1.91c-.19-.22-.38-.45-.56-.68h0l0,0h0l0,0h0l0,0v0l0,0h0l0,0h0l0,0,0,0,0,0,0,0v0l0,0v0l0,0h0l0,0h0l0,0h0l0,0h0c-.61-.73-1.23-1.45-1.85-2.15h0l0,0h0l0,0h0l0,0h0l-.18-.2h0l0,0h0l0,0h0l0,0v0l0,0h0l0,0,0,0,0,0v0l0,0,0,0,0,0,0,0,0,0,0,0,0,0,0,0v0l0,0h0l0,0v0l0,0h0l-.08-.09h0l0,0h0l0,0h0l0,0h0l0,0h0l0,0h0L939.32,415Zm-11.53-11.08-1.94,2.28c1.95,1.66,3.9,3.42,5.79,5.24l2.08-2.16-.11-.11h0c-1-.94-2-1.85-3-2.74h0l0,0h0l0,0h0l0,0h0l-.11-.1h0l0,0h0l0,0,0,0,0,0,0,0,0,0,0,0,0,0,0,0v0l0,0,0,0,0,0v0l0,0,0,0,0,0h0l0,0h0l-.05,0h0l0,0h0l0,0h0l0,0h0l0,0h0l-.09-.08h0l0,0h0l0,0h0l0,0h0l-.19-.16h0l0,0h0l-.23-.2h0l0,0h0l-.23-.2h0l-.05,0h0l-.18-.16h0l0,0h0l-.05,0h0l0,0h0l-.14-.12h0l0,0h0l0,0h0l0,0h0l0,0h0l0,0,0,0,0,0,0,0,0,0,0,0h0l0,0,0,0Zm-12.88-9.48-1.6,2.54c2.16,1.36,4.32,2.84,6.43,4.39l1.78-2.42q-1.39-1-2.82-2h0l-.05,0h0l-.15-.11h0l0,0h0l0,0h0l-.1-.07h0l0,0h0l0,0h0l0,0h0l0,0h0l0,0h0l0,0,0,0,0,0h0l0,0h0l0,0,0,0h0l0,0,0,0h0l0,0h0l0,0,0,0,0,0,0,0,0,0h0l0,0,0,0h0l-.11-.07h0l0,0h0l0,0h0l0,0h0l-.11-.07h0l0,0h0l0,0h0l0,0h0l-.07,0h0l0,0h0l0,0h0l0,0h0l-.12-.08h0l0,0h0l0,0h0l0,0h0l-.07,0h0l0,0h0l0,0h0l0,0,0,0h0l0,0h0l0,0,0,0h0l0,0h0l0,0h0l0,0h0l0,0,0,0,0,0h0l0,0h0l-.1-.06h0l0,0h0l-.05,0h0l-.21-.13h0l-.42-.27ZM900.76,387l-1.17,2.76c2.34,1,4.7,2.11,7,3.32L908,390.4c-.64-.33-1.28-.66-1.93-1h0l0,0h0l-.17-.08h0l0,0h0l0,0h0l-.06,0h-.1l0,0h0l0,0h0l0,0h-.08l0,0h0l0,0h0l0,0h-.07l0,0h0l-.05,0h0l0,0h-.07l0,0h0l-.05,0h0l0,0h0l0,0h0l0,0h0l0,0h0l0,0h0l0,0h-.07l0,0h0l0,0h-.07l0,0h0l0,0h0l0,0H904l0,0h0l-.05,0h0l0,0h0l0,0h0l0,0h0l-.05,0h0l0,0h-.07l0,0h0l0,0h-.13l0,0h0l0,0h-.07l0,0h-.06l0,0H903l0,0h-.07l0,0h0l0,0h-.13l0,0,0,0h-.1l0,0h-.09l0,0h-.07l0,0h0l0,0h0l0,0H902l0,0h0l-.05,0h0l0,0h-.07l0,0h0l-.05,0h0l0,0h0l0,0h0l0,0h0l-.11-.05h0l0,0h0l-.17-.07h0l-.06,0h0l-.34-.14Zm-15.21-4.91-.66,2.92c2.49.56,5,1.25,7.45,2.05l.92-2.86q-2.81-.92-5.67-1.63h0l-.18,0h-.12l-.06,0h-.34l-.12,0h-.06c-.39-.1-.77-.19-1.16-.27Zm-15.85-2-.09,3c2.56.08,5.14.29,7.69.62l.38-3h-.13c-2.51-.31-5-.52-7.59-.61h-.26Z"/></svg>